<?xml version="1.0" encoding="utf-8"?>
<!-- Generator: Adobe Illustrator 23.0.1, SVG Export Plug-In . SVG Version: 6.00 Build 0)  -->
<svg version="1.1" id="Capa_1" xmlns="http://www.w3.org/2000/svg" xmlns:xlink="http://www.w3.org/1999/xlink" x="0px" y="0px"
	 width="120px" height="99.6px" viewBox="0 0 120 99.6" style="enable-background:new 0 0 120 99.6;" xml:space="preserve">
<g>
	<g>
		<path d="M3.3,32.2v50C3.3,89.8,9.5,96,17.2,96h85.7c7.6,0,13.8-6.2,13.8-13.8v-50c0-7.3-5.9-13.2-13.2-13.2H85.1l-0.4-1.9
			C82.9,9.4,76.1,4,68.2,4H51.8c-7.9,0-14.7,5.4-16.5,13.1L34.9,19H16.5C9.2,19,3.3,24.9,3.3,32.2z M37.1,24.7
			c1.3,0,2.5-0.9,2.8-2.2l0.9-4.1c1.2-5.1,5.7-8.7,10.9-8.7h16.4c5.3,0,9.7,3.6,10.9,8.7l0.9,4.1c0.3,1.3,1.4,2.2,2.8,2.2h20.7
			c4.1,0,7.5,3.4,7.5,7.5v50c0,4.5-3.7,8.2-8.2,8.2H17.2c-4.5,0-8.2-3.7-8.2-8.2v-50c0-4.1,3.4-7.5,7.5-7.5L37.1,24.7L37.1,24.7z"/>
		<circle cx="22.5" cy="36.8" r="3.8"/>
		<path d="M60,81.5c13.1,0,23.8-10.7,23.8-23.8S73.1,33.9,60,33.9S36.2,44.5,36.2,57.7S46.9,81.5,60,81.5z M60,39.5
			c10,0,18.1,8.1,18.1,18.1S70,75.8,60,75.8s-18.1-8.1-18.1-18.1S50,39.5,60,39.5z"/>
	</g>
</g>
</svg>
