<?xml version="1.0" encoding="utf-8"?>
<!-- Generator: Adobe Illustrator 23.0.1, SVG Export Plug-In . SVG Version: 6.00 Build 0)  -->
<svg version="1.1" id="Layer_1" xmlns="http://www.w3.org/2000/svg" xmlns:xlink="http://www.w3.org/1999/xlink" x="0px" y="0px"
	 width="120px" height="120px" viewBox="0 0 120 120" style="enable-background:new 0 0 120 120;" xml:space="preserve">
<g>
	<g>
		<path d="M103.7,33.3V14.7c0-2-1.1-3.9-2.8-4.9c-1.8-1-3.9-1.1-5.7-0.1C78,19.3,59.3,24.9,39.7,26.4c-0.2,0-17.9,0.1-17.9,0.1
			c-4.5,0-8.1,3.4-8.7,7.7H9.5c-4,0-7.2,3.2-7.2,7.2v15.9c0,4,3.2,7.2,7.2,7.2h3.6c0.4,3.1,2.4,5.7,5.1,6.9l13,35.8
			c0.8,2.2,2.9,3.7,5.3,3.7h13c1.8,0,3.6-0.9,4.6-2.4c1.1-1.5,1.3-3.4,0.7-5.2L43.7,72.7C61.9,74.6,79.2,80,95.1,89
			c0.9,0.5,1.8,0.7,2.8,0.7c1,0,2-0.3,2.9-0.8c1.8-1,2.8-2.9,2.8-4.9V65.4c7.9-1,14.1-7.8,14.1-16C117.8,41.1,111.6,34.3,103.7,33.3
			z M13.1,59H9.5c-0.9,0-1.7-0.7-1.7-1.7V41.4c0-0.9,0.7-1.7,1.7-1.7h3.6V59z M20.5,66.4c-1.1-0.5-1.9-1.6-1.9-2.9V35.2h0
			c0-1.7,1.4-3.1,3.1-3.1H37v34.6c0,0-15.3,0-15.4,0C21,66.6,20.9,66.5,20.5,66.4z M49.6,105.3C49.7,105.3,49.7,105.4,49.6,105.3
			c0,0.1-0.1,0.1-0.1,0.1h-13c0,0-0.1,0-0.1,0l-12-33.1h13.2L49.6,105.3z M98.1,84c0,0,0,0.1-0.1,0.1c-0.1,0-0.1,0-0.1,0
			C80.7,74.5,62.1,68.7,42.6,67V31.7c19.6-1.8,38.2-7.5,55.3-17.1c0,0,0.1,0,0.1,0c0.1,0,0.1,0.1,0.1,0.1V84z M103.7,59.7V38.9
			c4.9,1,8.5,5.3,8.5,10.4C112.2,54.5,108.5,58.8,103.7,59.7z"/>
	</g>
</g>
</svg>
