<svg width="14" height="24" viewBox="0 0 14 24" fill="none" xmlns="http://www.w3.org/2000/svg">
<path d="M13.7628 8.2312C13.6972 8.09039 13.556 8.00002 13.4004 8.00002H8.66037L13.3384 0.614016C13.4164 0.490828 13.4211 0.334828 13.3508 0.207234C13.2804 0.0792188 13.1459 0 13.0003 0H6.60036C6.44877 0 6.31034 0.0855937 6.24237 0.221203L0.242374 12.2212C0.180358 12.3448 0.187155 12.492 0.259952 12.61C0.333171 12.728 0.461561 12.8 0.600358 12.8H4.71355L0.231546 23.4448C0.155139 23.6268 0.223155 23.838 0.39153 23.9412C0.456311 23.9808 0.528311 24 0.599936 24C0.714733 24 0.827936 23.9507 0.906358 23.858L13.7064 8.65795C13.8067 8.5388 13.8283 8.37239 13.7628 8.2312Z" fill="#333333"/>
</svg>
