<svg width="14" height="24" viewBox="0 0 14 24" fill="none" xmlns="http://www.w3.org/2000/svg">
<path d="M13.5626 8.2312C13.497 8.09039 13.3558 8.00002 13.2002 8.00002H8.46018L13.1382 0.614016C13.2162 0.490828 13.2209 0.334828 13.1506 0.207234C13.0802 0.0792188 12.9457 0 12.8001 0H6.40016C6.24857 0 6.11015 0.0855937 6.04218 0.221203L0.0421785 12.2212C-0.0198371 12.3448 -0.0130402 12.492 0.0597567 12.61C0.132975 12.728 0.261366 12.8 0.400163 12.8H4.51335L0.0313503 23.4448C-0.045056 23.6268 0.0229598 23.838 0.191335 23.9412C0.256116 23.9808 0.328116 24 0.399741 24C0.514538 24 0.627741 23.9507 0.706163 23.858L13.5062 8.65795C13.6065 8.5388 13.6281 8.37239 13.5626 8.2312Z" fill="#808080"/>
</svg>
