<svg width="24" height="24" viewBox="0 0 24 24" fill="none" xmlns="http://www.w3.org/2000/svg">
<g clip-path="url(#clip0)">
<path d="M18.347 20.0747C19.9038 20.0747 21.1658 18.8127 21.1658 17.256C21.1658 15.6992 19.9038 14.4373 18.347 14.4373C16.7903 14.4373 15.5283 15.6992 15.5283 17.256C15.5283 18.8127 16.7903 20.0747 18.347 20.0747Z" fill="#808080"/>
<path d="M22.5796 11.9275C22.5672 11.8987 22.5513 11.8786 22.5376 11.8526C22.528 11.817 22.518 11.7801 22.5066 11.7358C22.4842 11.6455 22.4262 11.462 22.3619 11.2708C22.2971 11.0682 22.2191 10.8752 22.1305 10.6452C21.9444 10.1948 21.7043 9.65087 21.3571 9.06677C21.0103 8.48267 20.5695 7.85157 20.0164 7.22093C19.467 6.58709 18.7925 5.96467 18.0012 5.40475C17.6074 5.12229 17.1794 4.86127 16.724 4.62626C16.2709 4.38715 15.7862 4.17769 15.2802 4.00064C14.775 3.82358 14.2434 3.68623 13.6963 3.59086C13.1519 3.49275 12.5888 3.43708 12.0234 3.43388C11.458 3.42886 10.888 3.46354 10.3272 3.55618C10.1858 3.57489 10.0466 3.60135 9.90785 3.63101L9.69931 3.67391L9.59481 3.69536L9.4853 3.72137L9.44331 3.73232C9.21241 3.79529 9.01026 3.84412 8.71867 3.9363C8.44077 4.01752 8.18751 4.10742 7.93653 4.19868C7.68418 4.29132 7.43411 4.3949 7.18678 4.50168C6.69213 4.71935 6.21025 4.96987 5.74799 5.24778C4.82758 5.81408 3.99022 6.4972 3.28976 7.25789C2.58793 8.01676 2.01844 8.84226 1.58173 9.66319C1.14412 10.485 0.82834 11.2991 0.607478 12.0598C0.385704 12.8214 0.247893 13.5269 0.162104 14.1511C0.0785963 14.7754 0.0297695 15.3193 0.0156234 15.7643C-0.00171702 16.2105 -0.00262967 16.5592 0.00330257 16.7965C0.00786583 17.0333 0.0106038 17.1597 0.0106038 17.1597C0.0265752 17.8912 0.602458 18.5004 1.34399 18.5415C2.12248 18.5848 2.78872 17.9884 2.83161 17.2099L2.83389 17.1597C2.83389 17.1597 2.84028 17.052 2.85123 16.8489C2.86082 16.6463 2.88363 16.3506 2.92561 15.9787C2.96303 15.6064 3.03102 15.1592 3.13096 14.6563C3.23226 14.1539 3.37874 13.6004 3.58729 13.0208C3.79856 12.4454 4.07099 11.8472 4.41962 11.2622C4.76917 10.6785 5.2045 10.1154 5.72335 9.60934C6.24082 9.10191 6.84728 8.65836 7.51853 8.28965C7.85849 8.11259 8.20621 7.9401 8.57356 7.79727C8.75791 7.72654 8.94318 7.65718 9.13256 7.59603C9.32421 7.53488 9.51496 7.47465 9.68927 7.43175C9.84579 7.38429 10.1004 7.32999 10.3236 7.27843L10.5476 7.24466C10.6389 7.2296 10.7292 7.21637 10.8205 7.21043C11.1842 7.168 11.5474 7.16708 11.9034 7.18853C12.2602 7.2077 12.6125 7.262 12.9538 7.34231C13.2952 7.41989 13.6269 7.52393 13.9441 7.65444C14.582 7.90086 15.1679 8.24264 15.6817 8.62504C16.2001 9.00425 16.6405 9.43365 17.0179 9.85712C17.3934 10.282 17.696 10.7109 17.9337 11.1079C18.1715 11.5054 18.3554 11.865 18.49 12.1684C18.5543 12.3204 18.6182 12.4641 18.6524 12.5645C18.6917 12.6749 18.7286 12.7452 18.7651 12.8666C18.8345 13.0751 18.8719 13.1865 18.8719 13.1865C19.1964 14.1539 20.2263 14.7179 21.2247 14.4491C21.2453 14.4432 21.2649 14.4359 21.2854 14.4291C21.3228 14.5509 21.3612 14.6704 21.3968 14.7927C21.8139 16.2215 22.0981 17.773 21.8923 19.262C21.7116 20.5689 23.709 21.1343 23.8924 19.8137C24.2639 17.1291 23.6373 14.3948 22.5796 11.9275Z" fill="#808080"/>
</g>
<defs>
<clipPath id="clip0">
<rect width="24" height="24" fill="white"/>
</clipPath>
</defs>
</svg>
