<svg width="24" height="18" viewBox="0 0 24 18" fill="none" xmlns="http://www.w3.org/2000/svg">
<path d="M18.347 17.0747C19.9038 17.0747 21.1658 15.8127 21.1658 14.256C21.1658 12.6992 19.9038 11.4373 18.347 11.4373C16.7903 11.4373 15.5283 12.6992 15.5283 14.256C15.5283 15.8127 16.7903 17.0747 18.347 17.0747Z" fill="#333333"/>
<path d="M22.5796 8.92747C22.5672 8.89873 22.5513 8.87865 22.5376 8.85264C22.528 8.81704 22.518 8.78008 22.5066 8.73582C22.4842 8.64547 22.4262 8.46202 22.3619 8.27082C22.2971 8.06821 22.2191 7.87519 22.1305 7.6452C21.9444 7.19481 21.7043 6.65086 21.3571 6.06677C21.0103 5.48267 20.5695 4.85157 20.0164 4.22093C19.467 3.58709 18.7925 2.96467 18.0013 2.40475C17.6074 2.12229 17.1794 1.86127 16.724 1.62626C16.2709 1.38715 15.7862 1.17769 15.2802 1.00064C14.775 0.823584 14.2434 0.68623 13.6963 0.590858C13.1519 0.492748 12.5888 0.437076 12.0234 0.433882C11.458 0.428863 10.888 0.463543 10.3272 0.556178C10.1858 0.574887 10.0466 0.601354 9.90785 0.631015L9.69931 0.673909L9.59481 0.695357L9.4853 0.721367L9.44331 0.732319C9.21241 0.795292 9.01026 0.844119 8.71867 0.936297C8.44077 1.01752 8.18751 1.10742 7.93653 1.19868C7.68418 1.29132 7.43411 1.3949 7.18678 1.50168C6.69213 1.71935 6.21025 1.96987 5.74799 2.24778C4.82758 2.81408 3.99022 3.4972 3.28976 4.25789C2.58793 5.01676 2.01844 5.84226 1.58173 6.66319C1.14412 7.48503 0.82834 8.29911 0.607478 9.05981C0.385704 9.82142 0.247893 10.5269 0.162104 11.1511C0.0785963 11.7754 0.0297695 12.3193 0.0156234 12.7643C-0.00171702 13.2105 -0.00262967 13.5592 0.00330257 13.7965C0.00786583 14.0333 0.0106038 14.1597 0.0106038 14.1597C0.0265752 14.8912 0.602458 15.5004 1.34399 15.5415C2.12248 15.5848 2.78872 14.9884 2.83161 14.2099L2.83389 14.1597C2.83389 14.1597 2.84028 14.052 2.85123 13.8489C2.86082 13.6463 2.88363 13.3506 2.92561 12.9787C2.96303 12.6064 3.03102 12.1592 3.13096 11.6563C3.23226 11.1539 3.37874 10.6004 3.58729 10.0208C3.79856 9.4454 4.07099 8.84716 4.41962 8.26215C4.76917 7.67851 5.2045 7.11541 5.72335 6.60934C6.24082 6.10191 6.84728 5.65836 7.51853 5.28965C7.85849 5.11259 8.20622 4.9401 8.57356 4.79727C8.75791 4.72654 8.94318 4.65718 9.13256 4.59603C9.32421 4.53488 9.51496 4.47465 9.68927 4.43175C9.84579 4.38429 10.1004 4.32999 10.3236 4.27843L10.5476 4.24466C10.6389 4.2296 10.7292 4.21637 10.8205 4.21043C11.1842 4.168 11.5474 4.16708 11.9034 4.18853C12.2602 4.2077 12.6125 4.262 12.9538 4.34231C13.2952 4.41989 13.6269 4.52393 13.9441 4.65444C14.582 4.90086 15.1679 5.24264 15.6817 5.62504C16.2001 6.00425 16.6405 6.43365 17.0179 6.85712C17.3934 7.28196 17.696 7.71091 17.9337 8.10791C18.1715 8.50537 18.3554 8.86496 18.49 9.16841C18.5543 9.32037 18.6182 9.46411 18.6524 9.56451C18.6917 9.67494 18.7286 9.74521 18.7651 9.86659C18.8345 10.0751 18.8719 10.1865 18.8719 10.1865C19.1964 11.1539 20.2263 11.7179 21.2247 11.4491C21.2453 11.4432 21.2649 11.4359 21.2854 11.4291C21.3228 11.5509 21.3612 11.6704 21.3968 11.7927C21.8139 13.2215 22.0981 14.773 21.8923 16.262C21.7116 17.5689 23.709 18.1343 23.8924 16.8137C24.2639 14.1291 23.6373 11.3948 22.5796 8.92747Z" fill="#333333"/>
</svg>
