<svg width="24" height="24" viewBox="0 0 24 24" fill="none" xmlns="http://www.w3.org/2000/svg">
<g clip-path="url(#clip0)">
<path d="M22.0242 11.6017C22.649 8.20816 21.629 3.54338 17.9125 1.32045C15.5652 0.00366394 12.7966 -0.344745 10.1962 0.349449C6.59414 1.31267 3.94652 3.89741 3.11394 7.26355C2.92833 7.94631 2.84965 8.65372 2.88081 9.36056C2.92069 9.79913 3.00162 10.233 3.12257 10.6564C3.28531 11.1953 3.36591 11.7557 3.36156 12.3186C3.34478 12.9887 2.8832 13.684 2.47551 14.2975C2.03109 14.967 1.64725 15.5452 1.86984 16.0784C2.08109 16.4398 2.45288 16.678 2.86952 16.7189C2.89351 16.7232 2.91779 16.7256 2.94215 16.7263C3.05349 16.7126 3.16512 16.7495 3.24633 16.827C3.32754 16.9044 3.3698 17.0141 3.36156 17.1259C3.36156 17.9569 3.38227 18.3857 3.72552 18.5823C3.69558 18.6448 3.67468 18.7113 3.66343 18.7797C3.62894 19.0143 3.71343 19.2506 3.88874 19.4102C4.06306 19.579 4.28391 19.6917 4.5229 19.7339C4.53968 19.7378 4.55571 19.7407 4.57131 19.7444C4.58078 19.8039 4.58495 19.864 4.58382 19.9243C4.58096 20.0729 4.57042 20.2214 4.55219 20.3691C4.48579 21.0087 4.39483 21.8848 5.6745 22.303C5.93135 22.3748 6.19756 22.4072 6.4641 22.3991C7.67583 22.3453 8.87335 22.1157 10.0191 21.7177C10.3499 22.2945 10.5493 22.9373 10.6031 23.6001C10.603 23.7061 10.6452 23.8079 10.7202 23.8829C10.7952 23.9579 10.8969 24 11.003 24H20.9999C21.1709 23.9979 21.3214 23.8865 21.3732 23.7235C21.4258 23.5583 21.3685 23.3779 21.2303 23.2732C20.8166 22.9591 19.4464 19.6493 19.4043 18.4604C19.5251 18.1862 19.6868 17.8784 19.8784 17.5207C20.9215 15.6825 21.6469 13.6813 22.0242 11.6017ZM18.6016 18.4203C18.6117 19.3766 19.4739 21.9035 20.2146 23.2003H11.369C11.2694 22.5876 11.0709 21.9952 10.7812 21.4462C11.9398 20.9921 12.9603 20.4083 13.4502 19.7676C13.5835 19.592 13.5497 19.3416 13.3745 19.2078C13.1993 19.0739 12.9489 19.107 12.8145 19.2818C11.6828 20.7625 6.97409 21.8868 5.92282 21.543C5.25702 21.3253 5.28354 21.0697 5.3476 20.4519C5.36883 20.2768 5.38083 20.1007 5.38355 19.9244C5.38355 19.2505 5.11175 19.0494 4.70327 18.9547C4.62618 18.9437 4.55257 18.9153 4.48809 18.8715C4.56658 18.7965 4.65566 18.7334 4.75247 18.6843C4.91939 18.6023 5.00777 18.416 4.96569 18.2349C4.92361 18.0537 4.76231 17.9255 4.57632 17.9253C4.43185 17.9253 4.27135 17.9253 4.18701 17.9148C4.16161 17.6526 4.15298 17.3892 4.16123 17.126C4.16906 16.8107 4.04919 16.5055 3.82885 16.2799C3.60851 16.0542 3.30631 15.927 2.99089 15.9273C2.7027 15.8666 2.61521 15.7885 2.6078 15.7703C2.5496 15.6315 2.93503 15.0516 3.14201 14.74C3.58602 14.0715 4.1386 13.2393 4.16123 12.339C4.17243 11.8394 4.11686 11.3406 3.99595 10.8557C4.43199 10.472 4.94657 10.1883 5.50379 10.0243C5.70234 9.98962 5.90637 10.0039 6.09812 10.0659C6.31101 10.1245 6.53112 9.99951 6.58978 9.78666C6.64845 9.57378 6.52343 9.35367 6.31059 9.295C5.99569 9.19809 5.66185 9.17982 5.33823 9.24168C4.77314 9.38563 4.24502 9.64791 3.78878 10.0112C3.73414 9.77823 3.69717 9.54149 3.67819 9.30297C3.65111 8.67982 3.72266 8.05629 3.89024 7.45549C4.66344 4.33045 7.03693 2.022 10.4031 1.12185C12.7942 0.480565 15.3412 0.798139 17.5017 2.00696C20.8909 4.03387 21.8141 8.3263 21.2377 11.4568C20.8783 13.4559 20.1802 15.3791 19.1735 17.1433C18.9536 17.5535 18.7638 17.9078 18.6267 18.2355C18.6036 18.2942 18.5949 18.3576 18.6016 18.4203Z" fill="#808080"/>
<path d="M19.395 12.5153C19.4522 11.8984 19.03 11.3396 18.4209 11.2262L17.6552 10.1648C17.7021 10.0782 17.7381 9.98606 17.7623 9.89051L18.5038 9.59398C18.8464 9.98386 19.4011 10.1086 19.8775 9.90283C20.3539 9.69707 20.6434 9.2077 20.5943 8.69106C20.5453 8.17443 20.1689 7.74832 19.6622 7.63586L19.0615 6.43749C19.4829 6.00811 19.5193 5.33233 19.1464 4.86021C18.7735 4.38804 18.1077 4.26686 17.5924 4.57736L16.9224 4.02117C16.9731 3.88865 16.9997 3.74816 17.0008 3.60626C17.0019 3.11634 16.7043 2.67519 16.2496 2.49276C15.7949 2.31029 15.2749 2.42336 14.937 2.77814L13.7515 2.4818C13.6095 1.96755 13.1431 1.61019 12.6096 1.60696C12.0761 1.60372 11.6054 1.95536 11.4572 2.46783L9.87287 2.7847C9.45961 2.33906 8.7775 2.275 8.28851 2.63597C7.79952 2.99689 7.65974 3.66756 7.96377 4.1938L7.18743 5.22769C6.6311 5.32825 6.22116 5.80459 6.20462 6.36968C6.18808 6.93477 6.56948 7.43426 7.11896 7.56721L7.76091 9.15199C7.4087 9.49772 7.30472 10.0242 7.499 10.4779C7.69329 10.9316 8.14606 11.2197 8.63931 11.2034C9.13257 11.187 9.56537 10.8698 9.72929 10.4042H11.8761C12.0554 10.9556 12.6147 11.2894 13.185 11.1855L14.5125 13.2048C14.172 13.5824 14.1072 14.1339 14.3511 14.5801C14.595 15.0263 15.0942 15.2696 15.5959 15.1868C16.0976 15.104 16.4922 14.7132 16.5798 14.2123L17.5707 13.4202C17.7593 13.5391 17.9775 13.6026 18.2004 13.6033C18.82 13.6037 19.3378 13.1321 19.395 12.5153ZM19.4001 8.40479C19.6001 8.40437 19.7696 8.55179 19.797 8.74987C19.8244 8.94795 19.7012 9.13587 19.5087 9.18976C19.3161 9.24365 19.1133 9.14697 19.0339 8.96342C19.0325 8.95976 19.0333 8.95597 19.0318 8.95231L19.0293 8.94842C19.0107 8.90273 19.0008 8.854 19.0002 8.80465C19.0005 8.58394 19.1793 8.40503 19.4001 8.40479ZM17.809 5.52436C17.8474 5.33875 18.011 5.20562 18.2005 5.20576C18.4214 5.20576 18.6004 5.38477 18.6004 5.60562C18.6004 5.82647 18.4214 6.00548 18.2005 6.00548C18.151 6.00487 18.1022 5.99499 18.0563 5.97633L18.0529 5.97409C18.0494 5.97268 18.0457 5.97343 18.0421 5.97207C17.868 5.89705 17.7706 5.71003 17.809 5.52436ZM17.4112 6.50192L16.6723 8.34954L15.3769 7.31327C15.5526 7.16336 15.681 6.96566 15.7466 6.74415L17.331 6.42727C17.3561 6.45394 17.3836 6.47765 17.4112 6.50192ZM16.9855 9.71249C16.9316 9.9048 16.744 10.0279 16.5462 10.0006C16.3483 9.97331 16.2009 9.80419 16.2011 9.60442C16.2014 9.38366 16.3802 9.20475 16.601 9.20456C16.6505 9.20517 16.6993 9.21506 16.7452 9.23371L16.7486 9.23596C16.7522 9.23741 16.756 9.2368 16.7596 9.23812C16.9429 9.31759 17.0393 9.52012 16.9855 9.71249ZM15.8012 3.2064C16.0221 3.2064 16.2011 3.38541 16.2011 3.60626C16.2011 3.82712 16.022 4.00613 15.8012 4.00613C15.5804 4.00613 15.4013 3.82712 15.4013 3.60626C15.4016 3.3855 15.5804 3.20664 15.8012 3.2064ZM13.6969 3.29244L14.6102 3.52079C14.6081 3.54956 14.6016 3.57702 14.6016 3.60631C14.6023 4.26855 15.139 4.80524 15.8013 4.80594C16.0157 4.80482 16.2259 4.74563 16.4093 4.63462L17.0793 5.19081C17.0286 5.32333 17.002 5.46382 17.0009 5.60571C17.0009 5.62989 17.0067 5.65253 17.008 5.67638L15.7057 5.93683C15.5424 5.5567 15.1947 5.28748 14.7858 5.22446L13.3217 3.76039C13.4843 3.63855 13.6134 3.47759 13.6969 3.29244ZM15.0015 6.40544C15.0015 6.62629 14.8225 6.8053 14.6016 6.8053C14.3809 6.80507 14.2019 6.6262 14.2018 6.40544C14.2018 6.18458 14.3808 6.00558 14.6016 6.00558C14.8225 6.00558 15.0015 6.18458 15.0015 6.40544ZM12.6022 2.40663C12.8231 2.40663 13.0021 2.58564 13.0021 2.80649C13.0021 3.02735 12.8231 3.20636 12.6022 3.20636C12.3814 3.20636 12.2024 3.02735 12.2024 2.80649C12.2025 2.58578 12.3815 2.40687 12.6022 2.40663ZM12.6815 4.25121L13.882 5.45164C13.6954 5.59264 13.5541 5.78519 13.4757 6.00553H12.5285C12.4341 5.74077 12.2495 5.51766 12.0072 5.37521L12.6815 4.25121ZM10.1958 3.53565L11.4982 3.27519C11.6004 3.5109 11.7755 3.70772 11.9976 3.83673L11.2718 5.04653L10.0169 4.24137C10.1378 4.05153 10.2023 3.83129 10.203 3.60626C10.203 3.58208 10.1972 3.55945 10.1958 3.53565ZM11.8025 6.40544C11.8025 6.62629 11.6234 6.8053 11.4026 6.8053C11.1818 6.80507 11.0029 6.6262 11.0027 6.40544C11.0027 6.18458 11.1817 6.00558 11.4026 6.00558C11.6234 6.00558 11.8025 6.18458 11.8025 6.40544ZM9.00332 3.2064C9.22418 3.2064 9.40319 3.38541 9.40319 3.60626C9.40319 3.82712 9.22418 4.00613 9.00332 4.00613C8.78247 4.00613 8.60346 3.82712 8.60346 3.60626C8.60365 3.3855 8.78256 3.20664 9.00332 3.2064ZM8.56808 4.72122C8.81171 4.82169 9.08294 4.83317 9.33421 4.75369L10.5688 5.54587C10.4374 5.6746 10.3374 5.83191 10.2767 6.00553H8.52975C8.44245 5.75801 8.27647 5.54587 8.05716 5.40168L8.56808 4.72122ZM7.40378 6.8053C7.18293 6.8053 7.00392 6.62629 7.00392 6.40544C7.00416 6.18468 7.18302 6.00576 7.40378 6.00558C7.62464 6.00558 7.80364 6.18458 7.80364 6.40544C7.80364 6.62629 7.62464 6.8053 7.40378 6.8053ZM8.60342 10.4042C8.38256 10.4042 8.20355 10.2251 8.20355 10.0043C8.20355 9.78348 8.38256 9.60447 8.60342 9.60447C8.82427 9.60447 9.00328 9.78353 9.00328 10.0043C9.00309 10.2251 8.82418 10.404 8.60342 10.4042ZM8.83083 8.82766C8.75595 8.81276 8.67975 8.80508 8.60342 8.80465C8.56382 8.80465 8.52642 8.81257 8.48781 8.81637L7.94291 7.47114C8.21653 7.33248 8.42652 7.09415 8.5297 6.8053H10.2766C10.3486 7.00671 10.4733 7.1851 10.6377 7.32189L8.83083 8.82766ZM11.8762 9.60442H9.72934C9.68665 9.48465 9.62502 9.37247 9.54686 9.27218L11.5107 7.63562L12.1795 9.13554C12.0428 9.26572 11.9389 9.4264 11.8762 9.60442ZM12.5285 6.8053H13.4757C13.5701 7.07006 13.7547 7.29317 13.997 7.43562L13.1656 8.82124C13.1115 8.81196 13.057 8.80644 13.0021 8.8047C12.9712 8.8047 12.9421 8.81154 12.9116 8.81384L12.2252 7.27423C12.3618 7.14401 12.4658 6.98332 12.5285 6.8053ZM13.0021 10.4042C12.7812 10.4042 12.6022 10.2251 12.6022 10.0043C12.6022 9.78348 12.7813 9.60447 13.0021 9.60447C13.2229 9.60447 13.4019 9.78353 13.4019 10.0043C13.4018 10.2251 13.2228 10.404 13.0021 10.4042ZM14.709 7.80324L15.8257 8.69664C15.65 8.8466 15.5216 9.0443 15.456 9.26576L14.1061 9.53573C14.0505 9.40794 13.9731 9.29083 13.8773 9.18961L14.709 7.80324ZM15.4013 14.403C15.1805 14.403 15.0015 14.2239 15.0015 14.0031C15.0015 13.7822 15.1805 13.6032 15.4013 13.6032C15.6222 13.6032 15.8012 13.7822 15.8012 14.0031C15.801 14.2239 15.6221 14.4028 15.4013 14.403ZM17.0008 12.4036C17.0023 12.5372 17.0263 12.6696 17.0719 12.7952L16.3969 13.3348C16.1445 12.9405 15.6789 12.7379 15.2184 12.822L13.8908 10.8027C14.0094 10.6705 14.097 10.5134 14.1471 10.343L15.4969 10.0731C15.7543 10.6809 16.4547 10.9661 17.0634 10.7109L17.5567 11.3947C17.2112 11.6139 17.0015 11.9944 17.0008 12.4036ZM17.3903 8.70817L18.1533 6.80052C18.1693 6.80118 18.1843 6.8053 18.2005 6.8053C18.2486 6.80342 18.2967 6.79855 18.3443 6.79077L18.8285 7.75662C18.443 7.96458 18.202 8.3667 18.2005 8.8047C18.2005 8.82092 18.2046 8.83596 18.2053 8.85203L17.6676 9.06698C17.5989 8.93085 17.5047 8.80906 17.3903 8.70817ZM18.2005 12.8035C17.9796 12.8035 17.8006 12.6245 17.8006 12.4036C17.8008 12.1828 17.9797 12.0039 18.2005 12.0037C18.4213 12.0037 18.6003 12.1827 18.6003 12.4036C18.6003 12.6245 18.4213 12.8035 18.2005 12.8035Z" fill="#808080"/>
</g>
<defs>
<clipPath id="clip0">
<rect width="24" height="24" fill="white"/>
</clipPath>
</defs>
</svg>
