<svg width="22" height="24" viewBox="0 0 22 24" fill="none" xmlns="http://www.w3.org/2000/svg">
<path d="M21.0242 11.6017C21.649 8.20815 20.629 3.54336 16.9125 1.32043C14.5652 0.00364868 11.7966 -0.34476 9.19618 0.349433C5.59414 1.31265 2.94652 3.89739 2.11394 7.26353C1.92833 7.94629 1.84965 8.6537 1.88081 9.36055C1.92069 9.79911 2.00162 10.233 2.12257 10.6564C2.28531 11.1953 2.36591 11.7557 2.36156 12.3186C2.34478 12.9887 1.8832 13.684 1.47551 14.2975C1.03109 14.967 0.647253 15.5452 0.869841 16.0784C1.08109 16.4398 1.45288 16.678 1.86952 16.7188C1.89351 16.7231 1.91779 16.7256 1.94215 16.7262C2.05349 16.7126 2.16512 16.7495 2.24633 16.8269C2.32754 16.9044 2.3698 17.0141 2.36156 17.1259C2.36156 17.9569 2.38227 18.3857 2.72552 18.5823C2.69558 18.6448 2.67468 18.7113 2.66343 18.7797C2.62894 19.0143 2.71343 19.2506 2.88874 19.4101C3.06306 19.579 3.28391 19.6917 3.5229 19.7338C3.53968 19.7377 3.55571 19.7407 3.57131 19.7444C3.58078 19.8039 3.58495 19.864 3.58382 19.9242C3.58096 20.0729 3.57042 20.2214 3.55219 20.369C3.48579 21.0087 3.39483 21.8848 4.6745 22.303C4.93135 22.3748 5.19756 22.4072 5.4641 22.3991C6.67583 22.3453 7.87335 22.1157 9.01909 21.7176C9.34988 22.2945 9.54932 22.9372 9.60307 23.6001C9.60302 23.7061 9.64515 23.8079 9.72017 23.8829C9.79515 23.9579 9.89689 24 10.003 24H19.9999C20.1709 23.9979 20.3214 23.8865 20.3732 23.7235C20.4258 23.5583 20.3686 23.3779 20.2303 23.2732C19.8166 22.9591 18.4464 19.6493 18.4043 18.4604C18.5251 18.1862 18.6868 17.8784 18.8784 17.5207C19.9215 15.6825 20.6469 13.6813 21.0242 11.6017ZM17.6016 18.4203C17.6117 19.3766 18.4739 21.9035 19.2146 23.2003H10.369C10.2694 22.5876 10.0709 21.9952 9.78119 21.4462C10.9398 20.9921 11.9603 20.4083 12.4502 19.7675C12.5835 19.592 12.5497 19.3416 12.3745 19.2077C12.1993 19.0739 11.9489 19.107 11.8145 19.2817C10.6828 20.7625 5.97409 21.8868 4.92282 21.543C4.25702 21.3252 4.28354 21.0697 4.3476 20.4519C4.36883 20.2768 4.38083 20.1007 4.38355 19.9243C4.38355 19.2505 4.11175 19.0494 3.70327 18.9547C3.62618 18.9437 3.55257 18.9152 3.48809 18.8715C3.56658 18.7965 3.65566 18.7334 3.75247 18.6843C3.91939 18.6023 4.00777 18.416 3.96569 18.2349C3.92361 18.0537 3.76231 17.9254 3.57632 17.9253C3.43185 17.9253 3.27135 17.9253 3.18701 17.9148C3.16161 17.6526 3.15298 17.3892 3.16123 17.126C3.16906 16.8106 3.04919 16.5055 2.82885 16.2798C2.60851 16.0542 2.30631 15.927 1.99089 15.9273C1.7027 15.8666 1.61521 15.7885 1.6078 15.7703C1.5496 15.6315 1.93503 15.0516 2.14201 14.74C2.58602 14.0714 3.1386 13.2393 3.16123 12.339C3.17243 11.8394 3.11686 11.3406 2.99596 10.8557C3.43199 10.472 3.94657 10.1882 4.50379 10.0243C4.70234 9.9896 4.90637 10.0039 5.09812 10.0658C5.31101 10.1245 5.53112 9.99949 5.58978 9.78665C5.64845 9.57376 5.52343 9.35366 5.31059 9.29499C4.99569 9.19808 4.66185 9.1798 4.33823 9.24166C3.77314 9.38562 3.24502 9.64789 2.78878 10.0112C2.73414 9.77821 2.69717 9.54147 2.67819 9.30295C2.65111 8.6798 2.72266 8.05627 2.89024 7.45547C3.66344 4.33043 6.03693 2.02198 9.40307 1.12184C11.7942 0.480549 14.3412 0.798124 16.5017 2.00694C19.8909 4.03385 20.8141 8.32628 20.2377 11.4568C19.8783 13.4559 19.1802 15.3791 18.1735 17.1433C17.9536 17.5535 17.7638 17.9077 17.6267 18.2355C17.6036 18.2942 17.5949 18.3576 17.6016 18.4203Z" fill="#333333"/>
<path d="M18.395 12.5153C18.4522 11.8984 18.03 11.3396 17.4209 11.2262L16.6552 10.1648C16.7021 10.0782 16.7381 9.98604 16.7623 9.89049L17.5038 9.59396C17.8464 9.98384 18.4011 10.1086 18.8775 9.90282C19.3539 9.69705 19.6434 9.20769 19.5943 8.69105C19.5453 8.17441 19.1689 7.74831 18.6622 7.63584L18.0615 6.43747C18.4829 6.00809 18.5193 5.33231 18.1464 4.86019C17.7735 4.38803 17.1077 4.26684 16.5924 4.57734L15.9224 4.02115C15.9731 3.88863 15.9997 3.74814 16.0008 3.60625C16.0019 3.11632 15.7043 2.67518 15.2496 2.49275C14.7949 2.31027 14.2749 2.42335 13.937 2.77813L12.7515 2.48178C12.6095 1.96753 12.1431 1.61017 11.6096 1.60694C11.0761 1.60371 10.6054 1.95535 10.4572 2.46782L8.87287 2.78469C8.45961 2.33904 7.7775 2.27499 7.28851 2.63595C6.79952 2.99687 6.65974 3.66754 6.96377 4.19379L6.18743 5.22767C5.6311 5.32824 5.22116 5.80458 5.20462 6.36967C5.18808 6.93476 5.56948 7.43425 6.11896 7.56719L6.76091 9.15197C6.4087 9.49771 6.30472 10.0241 6.499 10.4779C6.69329 10.9316 7.14606 11.2196 7.63931 11.2033C8.13257 11.187 8.56537 10.8698 8.72929 10.4042H10.8761C11.0554 10.9556 11.6147 11.2894 12.185 11.1855L13.5125 13.2048C13.172 13.5824 13.1072 14.1339 13.3511 14.5801C13.595 15.0263 14.0942 15.2696 14.5959 15.1868C15.0976 15.104 15.4922 14.7132 15.5798 14.2123L16.5707 13.4202C16.7593 13.5391 16.9775 13.6026 17.2004 13.6033C17.82 13.6037 18.3378 13.1321 18.395 12.5153ZM18.4001 8.40478C18.6001 8.40436 18.7696 8.55178 18.797 8.74986C18.8244 8.94794 18.7012 9.13585 18.5087 9.18974C18.3161 9.24363 18.1133 9.14696 18.0339 8.9634C18.0325 8.95975 18.0333 8.95595 18.0318 8.9523L18.0293 8.94841C18.0107 8.90272 18.0008 8.85398 18.0002 8.80464C18.0005 8.58393 18.1793 8.40501 18.4001 8.40478ZM16.809 5.52435C16.8474 5.33873 17.011 5.2056 17.2005 5.20574C17.4214 5.20574 17.6004 5.38475 17.6004 5.60561C17.6004 5.82646 17.4214 6.00547 17.2005 6.00547C17.151 6.00486 17.1022 5.99497 17.0563 5.97632L17.0529 5.97407C17.0494 5.97266 17.0457 5.97341 17.0421 5.97205C16.868 5.89703 16.7706 5.71001 16.809 5.52435ZM16.4112 6.50191L15.6723 8.34953L14.3769 7.31325C14.5526 7.16335 14.681 6.96564 14.7466 6.74413L16.331 6.42726C16.3561 6.45392 16.3836 6.47763 16.4112 6.50191ZM15.9855 9.71247C15.9316 9.90479 15.744 10.0278 15.5462 10.0006C15.3483 9.9733 15.2009 9.80418 15.2011 9.60441C15.2014 9.38365 15.3802 9.20474 15.601 9.20455C15.6505 9.20516 15.6993 9.21505 15.7452 9.2337L15.7486 9.23594C15.7522 9.2374 15.756 9.23679 15.7596 9.2381C15.9429 9.31758 16.0393 9.52011 15.9855 9.71247ZM14.8012 3.20639C15.0221 3.20639 15.2011 3.3854 15.2011 3.60625C15.2011 3.8271 15.022 4.00611 14.8012 4.00611C14.5804 4.00611 14.4013 3.8271 14.4013 3.60625C14.4016 3.38549 14.5804 3.20662 14.8012 3.20639ZM12.6969 3.29242L13.6102 3.52078C13.6081 3.54955 13.6016 3.57701 13.6016 3.6063C13.6023 4.26853 14.139 4.80523 14.8013 4.80593C15.0157 4.8048 15.2259 4.74562 15.4093 4.63461L16.0793 5.19079C16.0286 5.32332 16.002 5.4638 16.0009 5.6057C16.0009 5.62988 16.0067 5.65251 16.008 5.67636L14.7057 5.93682C14.5424 5.55668 14.1947 5.28747 13.7858 5.22444L12.3217 3.76037C12.4843 3.63854 12.6134 3.47757 12.6969 3.29242ZM14.0015 6.40542C14.0015 6.62628 13.8225 6.80528 13.6016 6.80528C13.3809 6.80505 13.2019 6.62618 13.2018 6.40542C13.2018 6.18457 13.3808 6.00556 13.6016 6.00556C13.8225 6.00556 14.0015 6.18457 14.0015 6.40542ZM11.6022 2.40662C11.8231 2.40662 12.0021 2.58562 12.0021 2.80648C12.0021 3.02733 11.8231 3.20634 11.6022 3.20634C11.3814 3.20634 11.2024 3.02733 11.2024 2.80648C11.2025 2.58577 11.3815 2.40685 11.6022 2.40662ZM11.6815 4.25119L12.882 5.45162C12.6954 5.59262 12.5541 5.78517 12.4757 6.00551H11.5285C11.4341 5.74075 11.2495 5.51765 11.0072 5.37519L11.6815 4.25119ZM9.19583 3.53563L10.4982 3.27518C10.6004 3.51089 10.7755 3.7077 10.9976 3.83671L10.2718 5.04651L9.01692 4.24135C9.13782 4.05152 9.2023 3.83127 9.20296 3.60625C9.20296 3.58207 9.19719 3.55944 9.19583 3.53563ZM10.8025 6.40542C10.8025 6.62628 10.6234 6.80528 10.4026 6.80528C10.1818 6.80505 10.0029 6.62618 10.0027 6.40542C10.0027 6.18457 10.1817 6.00556 10.4026 6.00556C10.6234 6.00556 10.8025 6.18457 10.8025 6.40542ZM8.00332 3.20639C8.22418 3.20639 8.40319 3.3854 8.40319 3.60625C8.40319 3.8271 8.22418 4.00611 8.00332 4.00611C7.78247 4.00611 7.60346 3.8271 7.60346 3.60625C7.60365 3.38549 7.78256 3.20662 8.00332 3.20639ZM7.56808 4.7212C7.81171 4.82167 8.08294 4.83315 8.33421 4.75368L9.56884 5.54586C9.43745 5.67458 9.33745 5.83189 9.27667 6.00551H7.52975C7.44245 5.758 7.27647 5.54586 7.05716 5.40167L7.56808 4.7212ZM6.40378 6.80528C6.18293 6.80528 6.00392 6.62628 6.00392 6.40542C6.00416 6.18466 6.18302 6.00575 6.40378 6.00556C6.62464 6.00556 6.80364 6.18457 6.80364 6.40542C6.80364 6.62628 6.62464 6.80528 6.40378 6.80528ZM7.60342 10.4042C7.38256 10.4042 7.20355 10.2251 7.20355 10.0043C7.20355 9.78346 7.38256 9.60446 7.60342 9.60446C7.82427 9.60446 8.00328 9.78351 8.00328 10.0043C8.00309 10.2251 7.82418 10.4039 7.60342 10.4042ZM7.83083 8.82765C7.75595 8.81275 7.67975 8.80506 7.60342 8.80464C7.56382 8.80464 7.52642 8.81256 7.48781 8.81635L6.94291 7.47113C7.21653 7.33247 7.42652 7.09413 7.5297 6.80528H9.27662C9.34865 7.00669 9.47334 7.18509 9.63773 7.32188L7.83083 8.82765ZM10.8762 9.60441H8.72934C8.68665 9.48463 8.62502 9.37245 8.54686 9.27217L10.5107 7.63561L11.1795 9.13552C11.0428 9.2657 10.9389 9.42639 10.8762 9.60441ZM11.5285 6.80528H12.4757C12.5701 7.07005 12.7547 7.29315 12.997 7.43561L12.1656 8.82123C12.1115 8.81195 12.057 8.80642 12.0021 8.80469C11.9712 8.80469 11.9421 8.81153 11.9116 8.81382L11.2252 7.27422C11.3618 7.14399 11.4658 6.98331 11.5285 6.80528ZM12.0021 10.4042C11.7812 10.4042 11.6022 10.2251 11.6022 10.0043C11.6022 9.78346 11.7813 9.60446 12.0021 9.60446C12.2229 9.60446 12.4019 9.78351 12.4019 10.0043C12.4018 10.2251 12.2228 10.4039 12.0021 10.4042ZM13.709 7.80323L14.8257 8.69663C14.65 8.84658 14.5216 9.04428 14.456 9.26575L13.1061 9.53571C13.0505 9.40792 12.9731 9.29082 12.8773 9.1896L13.709 7.80323ZM14.4013 14.4029C14.1805 14.4029 14.0015 14.2239 14.0015 14.0031C14.0015 13.7822 14.1805 13.6032 14.4013 13.6032C14.6222 13.6032 14.8012 13.7822 14.8012 14.0031C14.801 14.2238 14.6221 14.4028 14.4013 14.4029ZM16.0008 12.4036C16.0023 12.5372 16.0263 12.6696 16.0719 12.7952L15.3969 13.3348C15.1445 12.9405 14.6789 12.7379 14.2184 12.822L12.8908 10.8027C13.0094 10.6704 13.097 10.5134 13.1471 10.343L14.4969 10.0731C14.7543 10.6809 15.4547 10.9661 16.0634 10.7109L16.5567 11.3947C16.2112 11.6139 16.0015 11.9943 16.0008 12.4036ZM16.3903 8.70815L17.1533 6.8005C17.1693 6.80116 17.1843 6.80528 17.2005 6.80528C17.2486 6.80341 17.2967 6.79854 17.3443 6.79076L17.8285 7.7566C17.443 7.96457 17.202 8.36668 17.2005 8.80469C17.2005 8.8209 17.2046 8.83594 17.2053 8.85202L16.6676 9.06697C16.5989 8.93084 16.5047 8.80904 16.3903 8.70815ZM17.2005 12.8034C16.9796 12.8034 16.8006 12.6244 16.8006 12.4036C16.8008 12.1828 16.9797 12.0039 17.2005 12.0037C17.4213 12.0037 17.6003 12.1827 17.6003 12.4036C17.6003 12.6244 17.4213 12.8034 17.2005 12.8034Z" fill="#333333"/>
</svg>
