<?xml version="1.0" encoding="utf-8"?>
<!-- Generator: Adobe Illustrator 23.0.1, SVG Export Plug-In . SVG Version: 6.00 Build 0)  -->
<svg version="1.1" id="Layer_1" xmlns="http://www.w3.org/2000/svg" xmlns:xlink="http://www.w3.org/1999/xlink" x="0px" y="0px"
	 width="120px" height="120px" viewBox="0 0 120 120" style="enable-background:new 0 0 120 120;" xml:space="preserve">
<path d="M90.6,21.5c0.1,0,0.1,0,0.2,0c0.1,0,0.2,0,0.3,0c2.3,0,4.1,1.9,4.1,4.2c0,1,0.8,1.9,1.9,1.9c1,0,1.9-0.8,1.9-1.9
	c0-3.7-2.6-6.9-6.2-7.7v-1.8c0-1-0.8-1.9-1.9-1.9c-1,0-1.9,0.8-1.9,1.9v1.9c-3.8,1-6.3,4.7-5.8,8.6s3.9,6.9,7.8,6.9
	c2.3,0,4.2,1.9,4.2,4.2c0,2.3-1.9,4.2-4.2,4.2s-4.2-1.9-4.2-4.2c0-1-0.8-1.9-1.9-1.9c-1,0-1.9,0.8-1.9,1.9c0,3.6,2.4,6.7,5.9,7.6v2
	c0,1,0.8,1.9,1.9,1.9c1,0,1.9-0.8,1.9-1.9v-2c3.9-0.9,6.6-4.5,6.2-8.6c-0.4-4-3.8-7-7.8-7c-2.2,0-4.1-1.8-4.2-4
	C86.7,23.6,88.4,21.7,90.6,21.5L90.6,21.5z"/>
<path d="M91,5.2c-11.5,0-21.2,7.5-24.9,17.5H19.9c-1,0-1.9,0.9-1.9,1.9L17.6,90H4.4c-1,0-1.9,0.7-1.9,1.8v8.3
	c0,7.8,6.2,14.2,14,14.6v0H74v-0.1c0.5,0,0.7,0.1,1,0.1h0c8.1,0,14.6-6.6,14.6-14.6V58.1c0.5,0,1,0,1.4,0
	c14.6,0,26.5-11.9,26.5-26.5C117.5,17.1,105.6,5.2,91,5.2z M17.2,111L17.2,111c-6,0-10.9-4.9-11-10.9v-6.3h54v6.3
	c0,3.9,1.6,7.6,4.3,10.4c0.2,0.2,0.4,0.3,0.6,0.6H17.2z M85.9,100.1c0,6-4.9,10.9-10.9,10.9h0c-6,0-10.9-4.9-11-10.9v-8.3
	c0-0.5-0.2-0.9-0.5-1.3c-0.3-0.3-0.8-0.5-1.3-0.5H21.3l0.4-63.6h43.4c-0.3,1.7-0.5,3.4-0.5,5.2c0,3.7,0.8,7.3,2.2,10.7H49.2
	c-1,0-1.9,0.8-1.9,1.9s0.8,1.9,1.9,1.9h19.6c3.8,6,10,10.3,17,11.7V100.1z M91,54.4c-12.6,0-22.7-10.2-22.7-22.7
	C68.3,19.2,78.5,9,91.1,9c12.6,0,22.7,10.2,22.7,22.7C113.8,44.3,103.6,54.4,91,54.4z"/>
<path d="M37.3,54.7c-3.3,0-6,2.6-6,5.8c0,3.2,2.7,5.8,6,5.8s6-2.6,6-5.8C43.3,57.3,40.6,54.7,37.3,54.7z M37.3,62.5
	c-1.2,0-2.2-0.9-2.2-2c0-1.1,1-2,2.2-2s2.2,0.9,2.2,2S38.5,62.5,37.3,62.5z"/>
<path d="M47.4,60.4c0,1,0.8,1.9,1.9,1.9h24.8c1,0,1.9-0.8,1.9-1.9s-0.8-1.9-1.9-1.9H49.2C48.2,58.6,47.4,59.4,47.4,60.4z"/>
<path d="M37.3,38.5c-3.3,0-6,2.6-6,5.8c0,3.2,2.7,5.8,6,5.8s6-2.6,6-5.8C43.3,41.1,40.6,38.5,37.3,38.5z M37.3,46.3
	c-1.2,0-2.2-0.9-2.2-2s1-2,2.2-2s2.2,0.9,2.2,2C39.5,45.4,38.5,46.3,37.3,46.3L37.3,46.3z"/>
<path d="M37.3,70.9c-3.3,0-6,2.6-6,5.8s2.7,5.8,6,5.8s6-2.6,6-5.8S40.6,70.9,37.3,70.9z M37.3,78.7c-1.2,0-2.2-0.9-2.2-2
	c0-1.1,1-2,2.2-2s2.2,0.9,2.2,2S38.5,78.7,37.3,78.7z"/>
<path d="M74.1,74.9H49.2c-1,0-1.9,0.8-1.9,1.9c0,1,0.8,1.9,1.9,1.9h24.8c1,0,1.9-0.8,1.9-1.9C76,75.7,75.1,74.9,74.1,74.9z"/>
</svg>
