<svg width="24" height="24" viewBox="0 0 24 24" fill="none" xmlns="http://www.w3.org/2000/svg">
<path d="M17.3497 0H6.64984C5.75841 0 5.02881 0.728914 5.02881 1.62103V22.3783C5.02881 23.2704 5.75841 24 6.64984 24H17.3497C18.2412 24 18.9708 23.2718 18.9708 22.379V1.62103C18.9708 0.728914 18.2412 0 17.3497 0ZM10.2882 1.16846H13.7113C13.8197 1.16846 13.9074 1.25623 13.9074 1.36526C13.9074 1.4736 13.8197 1.56137 13.7113 1.56137H10.2882C10.1799 1.56137 10.0921 1.4736 10.0921 1.36526C10.0921 1.25623 10.1799 1.16846 10.2882 1.16846ZM11.9998 23.1895C11.552 23.1895 11.1893 22.8267 11.1893 22.3783C11.1893 21.9298 11.552 21.5678 11.9998 21.5678C12.4476 21.5678 12.8103 21.9298 12.8103 22.3783C12.8103 22.8267 12.4476 23.1895 11.9998 23.1895ZM17.8428 21H6.15681V2.57074H17.8428V21Z" fill="#808080"/>
</svg>
