<svg width="14" height="24" viewBox="0 0 14 24" fill="none" xmlns="http://www.w3.org/2000/svg">
<path d="M12.3497 0H1.64984C0.758409 0 0.0288086 0.728914 0.0288086 1.62103V22.3783C0.0288086 23.2704 0.758409 24 1.64984 24H12.3497C13.2412 24 13.9708 23.2718 13.9708 22.379V1.62103C13.9708 0.728914 13.2412 0 12.3497 0ZM5.28824 1.16846H8.71133C8.81967 1.16846 8.90744 1.25623 8.90744 1.36526C8.90744 1.4736 8.81967 1.56137 8.71133 1.56137H5.28824C5.1799 1.56137 5.09212 1.4736 5.09212 1.36526C5.09212 1.25623 5.1799 1.16846 5.28824 1.16846ZM6.99978 23.1895C6.55201 23.1895 6.18927 22.8267 6.18927 22.3783C6.18927 21.9298 6.55201 21.5678 6.99978 21.5678C7.44755 21.5678 7.8103 21.9298 7.8103 22.3783C7.8103 22.8267 7.44755 23.1895 6.99978 23.1895ZM12.8428 21H1.15681V2.57074H12.8428V21Z" fill="#333333"/>
</svg>
