<svg width="31" height="31" viewBox="0 0 31 31" fill="none" xmlns="http://www.w3.org/2000/svg">
<g clip-path="url(#clip0)">
<path d="M19.9501 5.42188H5.53892C4.18668 5.42188 3.08838 6.52018 3.08838 7.87242V28.5497C3.08838 29.9019 4.18668 31.0002 5.53892 31.0002H19.9501C21.3024 31.0002 22.4007 29.9019 22.4007 28.5497V7.87242C22.3943 6.52018 21.296 5.42188 19.9501 5.42188ZM20.6802 28.5433C20.6802 28.9496 20.3501 29.2798 19.9438 29.2798H5.53257C5.12627 29.2798 4.79614 28.9496 4.79614 28.5433V7.87242C4.79614 7.46611 5.12627 7.13599 5.53257 7.13599H19.9438C20.3501 7.13599 20.6802 7.46611 20.6802 7.87242V28.5433Z" fill="#E87200"/>
<path d="M25.4609 0H11.0497C9.69742 0 8.59912 1.0983 8.59912 2.45054C8.59912 2.92668 8.98003 3.3076 9.45618 3.3076C9.93232 3.3076 10.3132 2.92668 10.3132 2.45054C10.3132 2.04423 10.6434 1.71411 11.0497 1.71411H25.4609C25.8672 1.71411 26.1973 2.04423 26.1973 2.45054V23.1278C26.1973 23.5341 25.8672 23.8642 25.4609 23.8642C24.9847 23.8642 24.6038 24.2451 24.6038 24.7213C24.6038 25.1974 24.9847 25.5783 25.4609 25.5783C26.8131 25.5783 27.9114 24.48 27.9114 23.1278V2.45054C27.9114 1.0983 26.8131 0 25.4609 0Z" fill="#E87200"/>
</g>
<defs>
<clipPath id="clip0">
<rect width="31" height="31" fill="white"/>
</clipPath>
</defs>
</svg>
