<svg width="62" height="60" viewBox="0 0 62 60" fill="none" xmlns="http://www.w3.org/2000/svg">
<path d="M24.6991 20.8738C27.063 19.6199 29.7051 19.2019 32.3472 20.0378C34.9894 20.7345 37.0752 22.5457 38.3268 24.9142L56.6824 58.2131H61.6885L54.5966 44.9772C57.3777 40.3794 58.9074 35.085 58.9074 29.7907C58.9074 13.6289 45.8359 0.532227 29.7051 0.532227C13.5744 0.532227 0.50293 13.6289 0.50293 29.7907C0.50293 45.9525 13.5744 59.0491 29.7051 59.0491C33.8769 59.0491 38.1877 58.2131 41.9423 56.4019L42.9157 58.2131H47.9218L43.75 50.5502L41.8032 51.5255C38.1877 53.6154 34.0159 54.5907 29.7051 54.5907C16.0774 54.5907 4.95279 43.4446 4.95279 29.6513C4.95279 15.9974 16.0774 4.712 29.7051 4.712C43.3328 4.712 54.4575 15.8581 54.4575 29.512C54.4575 33.2738 53.6231 36.8963 52.0935 40.1008L42.3594 22.4064C40.5517 19.0626 37.3533 16.5547 33.7378 15.5794C29.9833 14.4648 26.0896 15.0221 22.7522 16.8334C15.7993 20.7345 13.2963 29.512 17.1899 36.4783C18.9977 39.8221 22.196 42.33 25.8115 43.3053C29.5661 44.4199 33.4597 43.8626 36.7971 42.0513L36.9362 42.1907L34.8503 38.2895L34.5722 38.4289C29.7051 41.076 23.5866 39.4041 20.9445 34.5277C18.0243 29.7907 19.832 23.6603 24.6991 20.8738Z" fill="white"/>
</svg>
