<svg width="223" height="86" viewBox="0 0 223 86" fill="none" xmlns="http://www.w3.org/2000/svg">
<g clip-path="url(#clip0)">
<path d="M26.589 23.0051C29.0167 21.7335 31.6755 21.3867 34.3344 22.0803C36.9933 22.7739 39.1898 24.6236 40.4614 27.0513L59.0737 60.692H64.1602L56.7616 47.2819C59.5361 42.6578 61.0389 37.34 61.0389 31.9066C61.1545 15.6065 47.8601 2.31201 31.5599 2.31201C15.2598 2.31201 1.96533 15.6065 1.96533 31.9066C1.96533 48.2068 15.2598 61.5012 31.5599 61.5012C35.8373 61.5012 40.1146 60.692 43.9296 58.8423L44.8544 60.692H49.941L45.6636 52.8309L43.6984 53.8714C39.999 55.9522 35.7217 56.9927 31.4443 56.9927C17.5719 56.9927 6.24268 45.6635 6.24268 31.791C6.24268 17.9185 17.5719 6.58936 31.4443 6.58936C45.3168 6.58936 56.646 17.9185 56.646 31.791C56.646 35.6059 55.8368 39.1897 54.2183 42.5422L44.2764 24.6236C42.4267 21.1555 39.3054 18.7278 35.4905 17.6873C31.6755 16.6469 27.745 17.1093 24.3925 18.959C17.3407 22.8895 14.7974 31.791 18.7279 38.8428C20.5776 42.311 23.6989 44.7387 27.5138 45.7791C31.3287 46.8195 35.2593 46.3571 38.6118 44.5074L38.9586 44.3918L36.7621 40.4613L36.4153 40.6925C31.4443 43.467 25.2017 41.6173 22.5428 36.762C19.8839 31.9066 21.7336 25.664 26.589 23.0051Z" fill="#EC7E21"/>
<path d="M83.6972 31.5596C75.6049 31.5596 68.8999 38.149 68.8999 46.3569C68.8999 54.5648 75.4893 61.1542 83.6972 61.1542C88.0902 61.1542 92.0207 59.1889 94.6796 56.1832V60.923H98.3789V46.3569C98.3789 38.149 91.7895 31.5596 83.6972 31.5596ZM83.6972 57.3392C77.6858 57.3392 72.7148 52.3683 72.7148 46.3569C72.7148 40.3455 77.6858 35.3745 83.6972 35.3745C89.7086 35.3745 94.6796 40.3455 94.6796 46.3569C94.6796 52.3683 89.7086 57.3392 83.6972 57.3392Z" fill="#F17E21"/>
<path d="M118.494 31.5596C110.402 31.5596 103.697 38.149 103.697 46.3569V81.2693H107.512V56.1832C110.171 59.1889 114.101 61.1542 118.494 61.1542C126.586 61.1542 133.291 54.5648 133.291 46.3569C133.291 38.149 126.586 31.5596 118.494 31.5596ZM118.494 57.3393C112.483 57.3393 107.512 52.3683 107.512 46.3569C107.512 40.3455 112.483 35.3745 118.494 35.3745C124.505 35.3745 129.476 40.3455 129.476 46.3569C129.476 52.3683 124.505 57.3393 118.494 57.3393Z" fill="#F17E21"/>
<path d="M201.613 60.9232H197.914V43.467C197.914 37.2244 203.001 32.2534 209.128 32.2534C215.37 32.2534 220.341 37.34 220.341 43.467H216.642C216.642 39.3053 213.289 35.9527 209.128 35.9527C204.966 35.9527 201.613 39.3053 201.613 43.467V60.9232Z" fill="#F17E21"/>
<path d="M156.181 49.825C156.181 53.9867 152.828 57.3392 148.667 57.3392C144.505 57.3392 141.152 53.9867 141.152 49.825V35.9525H157.799V32.2532H141.152V23.4673H137.453V49.9406C137.453 56.1832 142.54 61.1542 148.667 61.1542C154.909 61.1542 159.88 56.0676 159.88 49.9406H156.181V49.825Z" fill="#F17E21"/>
<path d="M191.556 53.5247C188.897 58.1488 184.041 61.0389 178.608 61.0389C170.516 61.0389 163.811 54.4495 163.811 46.2416C163.811 38.0338 170.4 31.4443 178.608 31.4443C186.7 31.4443 193.405 38.0338 193.405 46.2416V48.0913H167.857C168.782 53.2935 173.29 57.224 178.724 57.224C181.961 57.224 184.966 55.8368 187.047 53.4091L191.556 53.5247ZM167.857 44.5076H189.59C188.666 39.3054 184.157 35.3749 178.724 35.3749C173.175 35.3749 168.666 39.3054 167.857 44.5076Z" fill="#F17E21"/>
<path d="M129.226 76.5429C129.137 76.5877 129.019 76.6437 128.874 76.7108C128.728 76.7668 128.56 76.8284 128.37 76.8955C128.191 76.9515 127.989 76.9963 127.766 77.0299C127.553 77.0746 127.329 77.097 127.094 77.097C126.557 77.097 126.092 76.9515 125.7 76.6605C125.309 76.3582 125.113 75.8937 125.113 75.2669V69.3734H123.92V68.2149H125.113V65.2933H126.59V68.2149H128.555V69.3734H126.59V74.8135C126.613 75.1381 126.719 75.3732 126.909 75.5187C127.099 75.6642 127.323 75.737 127.581 75.737C127.872 75.737 128.135 75.6922 128.37 75.6027C128.616 75.5019 128.784 75.4236 128.874 75.3676L129.226 76.5429ZM132.846 77.1474C132.432 77.1474 132.045 77.0802 131.687 76.9459C131.329 76.8004 131.016 76.6045 130.747 76.3582C130.489 76.112 130.282 75.8265 130.126 75.5019C129.98 75.1661 129.907 74.8023 129.907 74.4105C129.907 74.0076 129.997 73.6438 130.176 73.3192C130.355 72.9834 130.607 72.6979 130.932 72.4628C131.267 72.2278 131.659 72.0431 132.107 71.9088C132.566 71.7744 133.064 71.7073 133.601 71.7073C134.027 71.7073 134.458 71.7465 134.894 71.8248C135.331 71.9032 135.717 72.0095 136.053 72.1438V71.4386C136.053 70.7222 135.851 70.1625 135.448 69.7596C135.045 69.3454 134.474 69.1383 133.736 69.1383C132.851 69.1383 131.922 69.4797 130.948 70.1625L130.461 69.2055C131.592 68.4443 132.728 68.0637 133.87 68.0637C135.023 68.0637 135.918 68.3716 136.556 68.9872C137.206 69.6029 137.53 70.4704 137.53 71.5897V75.1661C137.53 75.5131 137.687 75.6922 138 75.7034V76.9795C137.844 77.0019 137.715 77.0187 137.614 77.0299C137.513 77.0411 137.407 77.0467 137.295 77.0467C137.004 77.0467 136.769 76.9627 136.59 76.7948C136.422 76.6157 136.321 76.403 136.288 76.1568L136.254 75.5355C135.862 76.0616 135.364 76.4646 134.76 76.7444C134.167 77.0131 133.529 77.1474 132.846 77.1474ZM133.232 76.0392C133.758 76.0392 134.245 75.9441 134.693 75.7538C135.152 75.5523 135.499 75.2892 135.734 74.9646C135.946 74.752 136.053 74.5337 136.053 74.3098V73.0169C135.336 72.7371 134.592 72.5972 133.82 72.5972C133.081 72.5972 132.476 72.7539 132.006 73.0673C131.547 73.3807 131.318 73.7893 131.318 74.293C131.318 74.5393 131.363 74.7687 131.452 74.9814C131.553 75.1941 131.687 75.3788 131.855 75.5355C132.034 75.6922 132.241 75.8154 132.476 75.9049C132.711 75.9944 132.963 76.0392 133.232 76.0392ZM144.393 77.1474C143.71 77.1474 143.089 76.9795 142.529 76.6437C141.969 76.3079 141.527 75.8713 141.203 75.334V76.9795H139.893V64.7224H141.37V69.9611C141.74 69.3902 142.193 68.9312 142.73 68.5842C143.268 68.2372 143.895 68.0637 144.611 68.0637C145.215 68.0637 145.758 68.1925 146.24 68.4499C146.721 68.7074 147.13 69.0488 147.465 69.4741C147.812 69.8883 148.075 70.3752 148.255 70.9349C148.445 71.4834 148.54 72.0487 148.54 72.6308C148.54 73.2464 148.434 73.8285 148.221 74.377C148.008 74.9255 147.717 75.4068 147.348 75.8209C146.978 76.2239 146.536 76.5485 146.021 76.7948C145.518 77.0299 144.975 77.1474 144.393 77.1474ZM144.023 75.8713C144.46 75.8713 144.863 75.7818 145.232 75.6027C145.602 75.4236 145.921 75.1829 146.189 74.8807C146.458 74.5785 146.665 74.237 146.811 73.8565C146.956 73.4647 147.029 73.0561 147.029 72.6308C147.029 72.2054 146.956 71.7968 146.811 71.405C146.676 71.0021 146.48 70.6495 146.223 70.3472C145.977 70.045 145.674 69.8044 145.316 69.6253C144.969 69.435 144.583 69.3398 144.158 69.3398C143.844 69.3398 143.548 69.3958 143.268 69.5077C142.988 69.6197 142.725 69.7708 142.479 69.9611C142.244 70.1402 142.031 70.3528 141.841 70.5991C141.661 70.8454 141.505 71.1084 141.37 71.3883V73.9236C141.426 74.2035 141.544 74.4609 141.723 74.696C141.913 74.9311 142.132 75.1381 142.378 75.3172C142.635 75.4851 142.904 75.6195 143.184 75.7202C143.475 75.8209 143.755 75.8713 144.023 75.8713ZM150.388 64.7224H151.865V74.7128C151.865 75.0374 151.949 75.2948 152.117 75.4851C152.296 75.6642 152.542 75.7538 152.856 75.7538C152.979 75.7538 153.125 75.737 153.292 75.7034C153.46 75.6586 153.617 75.6083 153.763 75.5523L153.998 76.7444C153.751 76.8452 153.46 76.9291 153.125 76.9963C152.789 77.0634 152.492 77.097 152.235 77.097C151.664 77.097 151.21 76.9347 150.875 76.6101C150.55 76.2855 150.388 75.8321 150.388 75.2501V64.7224ZM159.037 77.1474C158.377 77.1474 157.772 77.0299 157.224 76.7948C156.675 76.5485 156.205 76.2183 155.813 75.8042C155.421 75.39 155.114 74.9087 154.89 74.3602C154.677 73.8005 154.571 73.2128 154.571 72.5972C154.571 71.9815 154.677 71.3994 154.89 70.851C155.114 70.3025 155.421 69.8211 155.813 69.407C156.216 68.9928 156.692 68.6682 157.24 68.4331C157.789 68.1869 158.393 68.0637 159.054 68.0637C159.714 68.0637 160.313 68.1869 160.85 68.4331C161.399 68.6794 161.863 69.0096 162.244 69.4238C162.625 69.8267 162.916 70.3025 163.117 70.851C163.33 71.3883 163.436 71.9479 163.436 72.53C163.436 72.6531 163.431 72.7651 163.419 72.8658C163.419 72.9666 163.414 73.0449 163.403 73.1009H156.132C156.166 73.5374 156.267 73.9348 156.435 74.293C156.602 74.6512 156.821 74.959 157.089 75.2165C157.358 75.4739 157.66 75.6754 157.996 75.8209C158.343 75.9665 158.707 76.0392 159.087 76.0392C159.356 76.0392 159.619 76.0056 159.877 75.9385C160.134 75.8601 160.375 75.7594 160.599 75.6363C160.822 75.5131 161.018 75.362 161.186 75.1829C161.365 75.0038 161.5 74.8023 161.589 74.5785L162.865 74.9311C162.72 75.2557 162.518 75.5523 162.261 75.8209C162.015 76.0896 161.724 76.3247 161.388 76.5261C161.063 76.7164 160.699 76.8676 160.296 76.9795C159.893 77.0914 159.474 77.1474 159.037 77.1474ZM162.043 72.0095C162.009 71.5953 161.903 71.2148 161.724 70.8677C161.556 70.5096 161.337 70.2073 161.069 69.9611C160.811 69.7148 160.509 69.5245 160.162 69.3902C159.815 69.2447 159.446 69.1719 159.054 69.1719C158.662 69.1719 158.293 69.2447 157.946 69.3902C157.599 69.5245 157.291 69.7204 157.022 69.9779C156.765 70.2241 156.552 70.5207 156.384 70.8677C156.227 71.2148 156.132 71.5953 156.099 72.0095H162.043ZM169.53 76.5429C169.441 76.5877 169.323 76.6437 169.177 76.7108C169.032 76.7668 168.864 76.8284 168.674 76.8955C168.495 76.9515 168.293 76.9963 168.069 77.0299C167.857 77.0746 167.633 77.097 167.398 77.097C166.86 77.097 166.396 76.9515 166.004 76.6605C165.612 76.3582 165.416 75.8937 165.416 75.2669V69.3734H164.224V68.2149H165.416V65.2933H166.894V68.2149H168.858V69.3734H166.894V74.8135C166.916 75.1381 167.023 75.3732 167.213 75.5187C167.403 75.6642 167.627 75.737 167.885 75.737C168.176 75.737 168.439 75.6922 168.674 75.6027C168.92 75.5019 169.088 75.4236 169.177 75.3676L169.53 76.5429ZM177.396 77.1474C176.982 77.1474 176.596 77.0802 176.238 76.9459C175.88 76.8004 175.566 76.6045 175.297 76.3582C175.04 76.112 174.833 75.8265 174.676 75.5019C174.531 75.1661 174.458 74.8023 174.458 74.4105C174.458 74.0076 174.547 73.6438 174.727 73.3192C174.906 72.9834 175.158 72.6979 175.482 72.4628C175.818 72.2278 176.21 72.0431 176.657 71.9088C177.116 71.7744 177.615 71.7073 178.152 71.7073C178.577 71.7073 179.008 71.7465 179.445 71.8248C179.881 71.9032 180.267 72.0095 180.603 72.1438V71.4386C180.603 70.7222 180.402 70.1625 179.999 69.7596C179.596 69.3454 179.025 69.1383 178.286 69.1383C177.402 69.1383 176.473 69.4797 175.499 70.1625L175.012 69.2055C176.143 68.4443 177.279 68.0637 178.42 68.0637C179.573 68.0637 180.469 68.3716 181.107 68.9872C181.756 69.6029 182.081 70.4704 182.081 71.5897V75.1661C182.081 75.5131 182.238 75.6922 182.551 75.7034V76.9795C182.394 77.0019 182.266 77.0187 182.165 77.0299C182.064 77.0411 181.958 77.0467 181.846 77.0467C181.555 77.0467 181.32 76.9627 181.141 76.7948C180.973 76.6157 180.872 76.403 180.838 76.1568L180.805 75.5355C180.413 76.0616 179.915 76.4646 179.31 76.7444C178.717 77.0131 178.079 77.1474 177.396 77.1474ZM177.782 76.0392C178.309 76.0392 178.795 75.9441 179.243 75.7538C179.702 75.5523 180.049 75.2892 180.284 74.9646C180.497 74.752 180.603 74.5337 180.603 74.3098V73.0169C179.887 72.7371 179.142 72.5972 178.37 72.5972C177.631 72.5972 177.027 72.7539 176.557 73.0673C176.098 73.3807 175.868 73.7893 175.868 74.293C175.868 74.5393 175.913 74.7687 176.003 74.9814C176.103 75.1941 176.238 75.3788 176.406 75.5355C176.585 75.6922 176.792 75.8154 177.027 75.9049C177.262 75.9944 177.514 76.0392 177.782 76.0392ZM189.162 77.1474C188.434 77.1474 187.79 76.9683 187.231 76.6101C186.682 76.2519 186.246 75.7986 185.921 75.2501V80.5559H184.443V68.2149H185.753V69.8603C186.1 69.323 186.548 68.8921 187.096 68.5675C187.656 68.2316 188.272 68.0637 188.943 68.0637C189.548 68.0637 190.102 68.1869 190.606 68.4331C191.109 68.6794 191.546 69.0152 191.915 69.4406C192.285 69.8547 192.57 70.3361 192.772 70.8845C192.984 71.433 193.091 72.0039 193.091 72.5972C193.091 73.224 192.995 73.8173 192.805 74.377C192.615 74.9255 192.346 75.4068 191.999 75.8209C191.652 76.2239 191.238 76.5485 190.757 76.7948C190.275 77.0299 189.744 77.1474 189.162 77.1474ZM188.708 75.8713C189.145 75.8713 189.537 75.7818 189.884 75.6027C190.242 75.4124 190.544 75.1661 190.79 74.8639C191.048 74.5505 191.244 74.1979 191.378 73.8061C191.512 73.4143 191.579 73.0113 191.579 72.5972C191.579 72.1606 191.501 71.7465 191.344 71.3547C191.188 70.9517 190.975 70.6047 190.706 70.3137C190.438 70.0114 190.119 69.7764 189.749 69.6085C189.391 69.4294 188.999 69.3398 188.574 69.3398C188.305 69.3398 188.025 69.3958 187.734 69.5077C187.455 69.6085 187.186 69.7484 186.928 69.9275C186.682 70.0954 186.464 70.3025 186.274 70.5487C186.094 70.7838 185.977 71.0357 185.921 71.3043V73.8061C186.044 74.0971 186.201 74.3714 186.391 74.6288C186.581 74.8751 186.8 75.0934 187.046 75.2837C187.292 75.4628 187.555 75.6083 187.835 75.7202C188.115 75.8209 188.406 75.8713 188.708 75.8713ZM199.623 77.1474C198.895 77.1474 198.252 76.9683 197.692 76.6101C197.143 76.2519 196.707 75.7986 196.382 75.2501V80.5559H194.905V68.2149H196.214V69.8603C196.561 69.323 197.009 68.8921 197.558 68.5675C198.117 68.2316 198.733 68.0637 199.405 68.0637C200.009 68.0637 200.563 68.1869 201.067 68.4331C201.571 68.6794 202.007 69.0152 202.376 69.4406C202.746 69.8547 203.031 70.3361 203.233 70.8845C203.445 71.433 203.552 72.0039 203.552 72.5972C203.552 73.224 203.457 73.8173 203.266 74.377C203.076 74.9255 202.807 75.4068 202.46 75.8209C202.113 76.2239 201.699 76.5485 201.218 76.7948C200.737 77.0299 200.205 77.1474 199.623 77.1474ZM199.169 75.8713C199.606 75.8713 199.998 75.7818 200.345 75.6027C200.703 75.4124 201.005 75.1661 201.252 74.8639C201.509 74.5505 201.705 74.1979 201.839 73.8061C201.973 73.4143 202.041 73.0113 202.041 72.5972C202.041 72.1606 201.962 71.7465 201.806 71.3547C201.649 70.9517 201.436 70.6047 201.168 70.3137C200.899 70.0114 200.58 69.7764 200.21 69.6085C199.852 69.4294 199.461 69.3398 199.035 69.3398C198.767 69.3398 198.487 69.3958 198.196 69.5077C197.916 69.6085 197.647 69.7484 197.39 69.9275C197.143 70.0954 196.925 70.3025 196.735 70.5487C196.556 70.7838 196.438 71.0357 196.382 71.3043V73.8061C196.505 74.0971 196.662 74.3714 196.852 74.6288C197.043 74.8751 197.261 75.0934 197.507 75.2837C197.753 75.4628 198.017 75.6083 198.296 75.7202C198.576 75.8209 198.867 75.8713 199.169 75.8713Z" fill="#817370"/>
</g>
<defs>
<clipPath id="clip0">
<rect width="223" height="85.8937" fill="white"/>
</clipPath>
</defs>
</svg>
