<svg width="328" height="86" viewBox="0 0 328 86" fill="none" xmlns="http://www.w3.org/2000/svg">
<g clip-path="url(#clip0)">
<path d="M26.589 23.0051C29.0167 21.7335 31.6755 21.3867 34.3344 22.0803C36.9933 22.7739 39.1898 24.6236 40.4614 27.0513L59.0737 60.692H64.1602L56.7616 47.2819C59.5361 42.6578 61.0389 37.34 61.0389 31.9066C61.1545 15.6065 47.8601 2.31201 31.5599 2.31201C15.2598 2.31201 1.96533 15.6065 1.96533 31.9066C1.96533 48.2068 15.2598 61.5012 31.5599 61.5012C35.8373 61.5012 40.1146 60.692 43.9296 58.8423L44.8544 60.692H49.941L45.6636 52.8309L43.6984 53.8714C39.999 55.9522 35.7217 56.9927 31.4443 56.9927C17.5719 56.9927 6.24268 45.6635 6.24268 31.791C6.24268 17.9185 17.5719 6.58936 31.4443 6.58936C45.3168 6.58936 56.646 17.9185 56.646 31.791C56.646 35.6059 55.8368 39.1897 54.2183 42.5422L44.2764 24.6236C42.4267 21.1555 39.3054 18.7278 35.4905 17.6873C31.6755 16.6469 27.745 17.1093 24.3925 18.959C17.3407 22.8895 14.7974 31.791 18.7279 38.8428C20.5776 42.311 23.6989 44.7387 27.5138 45.7791C31.3287 46.8195 35.2593 46.3571 38.6118 44.5074L38.9586 44.3918L36.7621 40.4613L36.4153 40.6925C31.4443 43.467 25.2017 41.6173 22.5428 36.762C19.8839 31.9066 21.7336 25.664 26.589 23.0051Z" fill="#EC7E21"/>
<path d="M83.6972 31.5596C75.6049 31.5596 68.8999 38.149 68.8999 46.3569C68.8999 54.5648 75.4893 61.1542 83.6972 61.1542C88.0902 61.1542 92.0207 59.1889 94.6796 56.1832V60.923H98.3789V46.3569C98.3789 38.149 91.7895 31.5596 83.6972 31.5596ZM83.6972 57.3392C77.6858 57.3392 72.7148 52.3683 72.7148 46.3569C72.7148 40.3455 77.6858 35.3745 83.6972 35.3745C89.7086 35.3745 94.6796 40.3455 94.6796 46.3569C94.6796 52.3683 89.7086 57.3392 83.6972 57.3392Z" fill="#F17E21"/>
<path d="M118.494 31.5596C110.402 31.5596 103.697 38.149 103.697 46.3569V81.2693H107.512V56.1832C110.171 59.1889 114.101 61.1542 118.494 61.1542C126.586 61.1542 133.291 54.5648 133.291 46.3569C133.291 38.149 126.586 31.5596 118.494 31.5596ZM118.494 57.3393C112.483 57.3393 107.512 52.3683 107.512 46.3569C107.512 40.3455 112.483 35.3745 118.494 35.3745C124.505 35.3745 129.476 40.3455 129.476 46.3569C129.476 52.3683 124.505 57.3393 118.494 57.3393Z" fill="#F17E21"/>
<path d="M201.613 60.9232H197.914V43.467C197.914 37.2244 203.001 32.2534 209.128 32.2534C215.37 32.2534 220.341 37.34 220.341 43.467H216.642C216.642 39.3053 213.289 35.9527 209.128 35.9527C204.966 35.9527 201.613 39.3053 201.613 43.467V60.9232Z" fill="#F17E21"/>
<path d="M156.181 49.825C156.181 53.9867 152.828 57.3392 148.667 57.3392C144.505 57.3392 141.152 53.9867 141.152 49.825V35.9525H157.799V32.2532H141.152V23.4673H137.453V49.9406C137.453 56.1832 142.54 61.1542 148.667 61.1542C154.909 61.1542 159.88 56.0676 159.88 49.9406H156.181V49.825Z" fill="#F17E21"/>
<path d="M191.556 53.5247C188.897 58.1488 184.042 61.0389 178.608 61.0389C170.516 61.0389 163.811 54.4495 163.811 46.2416C163.811 38.0338 170.4 31.4443 178.608 31.4443C186.701 31.4443 193.406 38.0338 193.406 46.2416V48.0913H167.857C168.782 53.2935 173.291 57.224 178.724 57.224C181.961 57.224 184.967 55.8368 187.047 53.4091L191.556 53.5247ZM167.857 44.5076H189.591C188.666 39.3054 184.157 35.3749 178.724 35.3749C173.175 35.3749 168.666 39.3054 167.857 44.5076Z" fill="#F17E21"/>
</g>
<path d="M250.198 56.872C247.503 59.7673 244.407 61.215 240.91 61.215C238.875 61.215 236.983 60.7707 235.234 59.882C233.514 58.9933 232.023 57.8323 230.762 56.399C229.501 54.937 228.497 53.2743 227.752 51.411C227.035 49.5477 226.677 47.627 226.677 45.649C226.677 43.585 227.035 41.6357 227.752 39.801C228.469 37.9377 229.458 36.3037 230.719 34.899C231.98 33.4657 233.485 32.3333 235.234 31.502C236.983 30.6707 238.875 30.255 240.91 30.255C243.863 30.255 246.285 30.8713 248.177 32.104C250.098 33.3367 251.56 34.942 252.563 36.92L249.596 38.984C248.679 37.2067 247.46 35.888 245.941 35.028C244.422 34.168 242.716 33.738 240.824 33.738C239.276 33.738 237.871 34.082 236.61 34.77C235.349 35.4293 234.274 36.318 233.385 37.436C232.496 38.5253 231.808 39.801 231.321 41.263C230.834 42.6963 230.59 44.187 230.59 45.735C230.59 47.369 230.862 48.917 231.407 50.379C231.952 51.8123 232.697 53.088 233.643 54.206C234.589 55.2953 235.707 56.1553 236.997 56.786C238.287 57.4167 239.692 57.732 241.211 57.732C244.536 57.732 247.532 56.1267 250.198 52.916V48.702H243.619V45.778H253.466V61H250.198V56.872ZM271.735 61.215C269.585 61.215 267.622 60.785 265.844 59.925C264.096 59.0363 262.591 57.8753 261.329 56.442C260.068 54.98 259.093 53.3173 258.405 51.454C257.717 49.5907 257.373 47.6843 257.373 45.735C257.373 43.6997 257.732 41.7503 258.448 39.887C259.194 38.0237 260.211 36.3753 261.501 34.942C262.791 33.5087 264.311 32.3763 266.059 31.545C267.837 30.685 269.757 30.255 271.821 30.255C273.971 30.255 275.921 30.7137 277.669 31.631C279.418 32.5197 280.923 33.695 282.184 35.157C283.446 36.619 284.42 38.2817 285.108 40.145C285.796 41.9797 286.14 43.8573 286.14 45.778C286.14 47.8133 285.768 49.7627 285.022 51.626C284.306 53.4893 283.302 55.1377 282.012 56.571C280.751 57.9757 279.232 59.108 277.454 59.968C275.706 60.7993 273.799 61.215 271.735 61.215ZM261.286 45.735C261.286 47.283 261.53 48.788 262.017 50.25C262.533 51.6833 263.25 52.959 264.167 54.077C265.085 55.195 266.188 56.0837 267.478 56.743C268.768 57.4023 270.202 57.732 271.778 57.732C273.412 57.732 274.874 57.388 276.164 56.7C277.454 55.9833 278.544 55.066 279.432 53.948C280.35 52.8013 281.038 51.5113 281.496 50.078C281.984 48.6447 282.227 47.197 282.227 45.735C282.227 44.187 281.969 42.6963 281.453 41.263C280.966 39.801 280.249 38.5253 279.303 37.436C278.386 36.318 277.282 35.4293 275.992 34.77C274.731 34.1107 273.326 33.781 271.778 33.781C270.144 33.781 268.682 34.125 267.392 34.813C266.102 35.501 264.999 36.404 264.081 37.522C263.193 38.64 262.505 39.9157 262.017 41.349C261.53 42.7823 261.286 44.2443 261.286 45.735Z" fill="black"/>
<defs>
<clipPath id="clip0">
<rect width="223" height="85.8937" fill="white"/>
</clipPath>
</defs>
</svg>
