<svg width="223" height="86" viewBox="0 0 223 86" fill="none" xmlns="http://www.w3.org/2000/svg">
<g clip-path="url(#clip0)">
<path d="M26.589 23.0336C29.0167 21.7604 31.6755 21.4132 34.3344 22.1077C36.9933 22.8022 39.1898 24.6541 40.4614 27.0848L59.0737 60.7672H64.1602L56.7616 47.3405C59.5361 42.7106 61.0389 37.3863 61.0389 31.9462C61.1545 15.6258 47.8601 2.31494 31.5599 2.31494C15.2598 2.31494 1.96533 15.6258 1.96533 31.9462C1.96533 48.2665 15.2598 61.5774 31.5599 61.5774C35.8373 61.5774 40.1146 60.7672 43.9296 58.9152L44.8544 60.7672H49.941L45.6636 52.8964L43.6984 53.9381C39.999 56.0215 35.7217 57.0633 31.4443 57.0633C17.5719 57.0633 6.24268 45.7201 6.24268 31.8304C6.24268 17.9408 17.5719 6.59758 31.4443 6.59758C45.3168 6.59758 56.646 17.9408 56.646 31.8304C56.646 35.6501 55.8368 39.2382 54.2183 42.5949L44.2764 24.6541C42.4267 21.1817 39.3054 18.751 35.4905 17.7093C31.6755 16.6676 27.745 17.1306 24.3925 18.9825C17.3407 22.9179 14.7974 31.8304 18.7279 38.891C20.5776 42.3634 23.6989 44.7941 27.5138 45.8358C31.3287 46.8775 35.2593 46.4145 38.6118 44.5626L38.9586 44.4468L36.7621 40.5114L36.4153 40.7429C31.4443 43.5209 25.2017 41.6689 22.5428 36.8075C19.8839 31.9462 21.7336 25.6958 26.589 23.0336Z" fill="#EC7E21"/>
<path d="M83.6972 31.5991C75.6049 31.5991 68.8999 38.1967 68.8999 46.4147C68.8999 54.6328 75.4893 61.2303 83.6972 61.2303C88.0902 61.2303 92.0207 59.2626 94.6796 56.2532V60.9989H98.3789V46.4147C98.3789 38.1967 91.7895 31.5991 83.6972 31.5991ZM83.6972 57.4107C77.6858 57.4107 72.7148 52.4336 72.7148 46.4147C72.7148 40.3959 77.6858 35.4188 83.6972 35.4188C89.7086 35.4188 94.6796 40.3959 94.6796 46.4147C94.6796 52.4336 89.7086 57.4107 83.6972 57.4107Z" fill="#F17E21"/>
<path d="M118.494 31.5991C110.402 31.5991 103.697 38.1967 103.697 46.4147V81.3703H107.512V56.2532C110.171 59.2626 114.101 61.2303 118.494 61.2303C126.586 61.2303 133.291 54.6328 133.291 46.4147C133.291 38.1967 126.586 31.5991 118.494 31.5991ZM118.494 57.4107C112.483 57.4107 107.512 52.4336 107.512 46.4147C107.512 40.3959 112.483 35.4188 118.494 35.4188C124.505 35.4188 129.476 40.3959 129.476 46.4147C129.476 52.4336 124.505 57.4107 118.494 57.4107Z" fill="#F17E21"/>
<path d="M201.613 60.9987H197.914V43.5209C197.914 37.2706 203.001 32.2935 209.128 32.2935C215.37 32.2935 220.341 37.3863 220.341 43.5209H216.642C216.642 39.354 213.289 35.9974 209.128 35.9974C204.966 35.9974 201.613 39.354 201.613 43.5209V60.9987Z" fill="#F17E21"/>
<path d="M156.181 49.8869C156.181 54.0538 152.828 57.4104 148.667 57.4104C144.505 57.4104 141.152 54.0538 141.152 49.8869V35.9973H157.799V32.2934H141.152V23.4966H137.453V50.0026C137.453 56.253 142.54 61.2301 148.667 61.2301C154.909 61.2301 159.88 56.1372 159.88 50.0026H156.181V49.8869Z" fill="#F17E21"/>
<path d="M191.556 53.5911C188.897 58.2209 184.042 61.1146 178.608 61.1146C170.516 61.1146 163.811 54.517 163.811 46.299C163.811 38.081 170.4 31.4834 178.608 31.4834C186.701 31.4834 193.406 38.081 193.406 46.299V48.151H167.857C168.782 53.3596 173.291 57.295 178.724 57.295C181.961 57.295 184.967 55.906 187.047 53.4753L191.556 53.5911ZM167.857 44.5628H189.591C188.666 39.3542 184.157 35.4188 178.724 35.4188C173.175 35.4188 168.666 39.3542 167.857 44.5628Z" fill="#F17E21"/>
<path d="M139.703 77.2231C138.998 77.2231 138.304 77.1167 137.621 76.9041C136.938 76.6802 136.35 76.3612 135.858 75.947L136.496 74.9564C137.011 75.3481 137.526 75.6448 138.041 75.8463C138.555 76.0366 139.098 76.1317 139.669 76.1317C140.307 76.1317 140.811 76.0086 141.18 75.7623C141.561 75.5049 141.751 75.1467 141.751 74.6877C141.751 74.475 141.701 74.2959 141.6 74.1504C141.499 73.9937 141.348 73.8594 141.147 73.7474C140.945 73.6355 140.688 73.5348 140.374 73.4452C140.061 73.3557 139.697 73.2605 139.283 73.1598C138.757 73.0255 138.304 72.8967 137.923 72.7736C137.542 72.6505 137.229 72.5049 136.983 72.337C136.736 72.1691 136.557 71.9677 136.445 71.7326C136.333 71.4975 136.278 71.2065 136.278 70.8595C136.278 70.4229 136.361 70.0367 136.529 69.7009C136.708 69.3539 136.949 69.0685 137.251 68.8446C137.554 68.6096 137.906 68.4361 138.309 68.3241C138.723 68.201 139.165 68.1394 139.636 68.1394C140.296 68.1394 140.912 68.2458 141.483 68.4584C142.053 68.6711 142.535 68.951 142.927 69.298L142.255 70.1879C141.886 69.8632 141.471 69.6226 141.012 69.4659C140.553 69.298 140.083 69.214 139.602 69.214C139.065 69.214 138.606 69.3315 138.225 69.5666C137.856 69.7905 137.671 70.1543 137.671 70.658C137.671 70.8595 137.705 71.0274 137.772 71.1617C137.85 71.296 137.973 71.4136 138.141 71.5143C138.309 71.6151 138.522 71.7046 138.779 71.783C139.048 71.8613 139.367 71.9453 139.736 72.0348C140.318 72.1691 140.822 72.3091 141.248 72.4546C141.684 72.5889 142.042 72.7512 142.322 72.9415C142.613 73.1318 142.826 73.3557 142.96 73.6131C143.106 73.8706 143.178 74.184 143.178 74.5534C143.178 75.3705 142.865 76.0198 142.238 76.5011C141.611 76.9824 140.766 77.2231 139.703 77.2231ZM145.15 79.4394C145.295 79.4618 145.441 79.4786 145.586 79.4898C145.732 79.501 145.844 79.5066 145.922 79.5066C146.056 79.5066 146.174 79.473 146.275 79.4058C146.386 79.3499 146.493 79.2323 146.594 79.0532C146.706 78.8741 146.829 78.6223 146.963 78.2977C147.097 77.9843 147.265 77.5701 147.467 77.0552L143.756 68.2905H145.284L148.273 75.7287L150.993 68.2905H152.403L148.138 79.3555C147.982 79.7473 147.719 80.0887 147.349 80.3797C146.991 80.6819 146.493 80.833 145.855 80.833C145.754 80.833 145.648 80.8274 145.536 80.8162C145.435 80.8051 145.306 80.7827 145.15 80.7491V79.4394ZM161.502 77.0552H160.025V72.1523C160.025 71.2121 159.879 70.5293 159.588 70.1039C159.308 69.6785 158.877 69.4659 158.295 69.4659C157.993 69.4659 157.691 69.5274 157.389 69.6506C157.086 69.7625 156.801 69.9192 156.532 70.1207C156.264 70.3222 156.029 70.5628 155.827 70.8427C155.626 71.1225 155.474 71.4304 155.374 71.7662V77.0552H153.896V68.2905H155.239V70.1711C155.586 69.5554 156.084 69.0629 156.734 68.6935C157.394 68.3241 158.111 68.1394 158.883 68.1394C159.387 68.1394 159.806 68.2346 160.142 68.4249C160.478 68.604 160.747 68.8614 160.948 69.1972C161.15 69.5218 161.29 69.908 161.368 70.3558C161.457 70.8035 161.502 71.2904 161.502 71.8165V77.0552ZM163.212 72.6561C163.212 72.0404 163.319 71.4583 163.531 70.9099C163.744 70.3614 164.046 69.8856 164.438 69.4827C164.83 69.0685 165.294 68.7439 165.832 68.5088C166.38 68.2626 166.99 68.1394 167.662 68.1394C168.535 68.1394 169.285 68.3353 169.912 68.7271C170.55 69.1077 171.031 69.6226 171.356 70.2718L169.912 70.7252C169.688 70.311 169.374 69.992 168.971 69.7681C168.568 69.533 168.121 69.4155 167.628 69.4155C167.225 69.4155 166.845 69.4995 166.486 69.6674C166.128 69.8241 165.82 70.0479 165.563 70.339C165.305 70.63 165.098 70.9714 164.942 71.3632C164.796 71.755 164.723 72.1859 164.723 72.6561C164.723 73.115 164.802 73.546 164.958 73.9489C165.115 74.3519 165.322 74.7045 165.58 75.0067C165.848 75.2978 166.156 75.5272 166.503 75.6951C166.861 75.8631 167.242 75.947 167.645 75.947C167.902 75.947 168.154 75.9134 168.4 75.8463C168.658 75.7679 168.887 75.6672 169.089 75.544C169.302 75.4209 169.486 75.281 169.643 75.1243C169.8 74.9564 169.912 74.7773 169.979 74.587L171.423 75.0235C171.288 75.3481 171.098 75.6448 170.852 75.9134C170.617 76.1821 170.337 76.4115 170.012 76.6018C169.688 76.7921 169.324 76.9432 168.921 77.0552C168.529 77.1671 168.115 77.2231 167.679 77.2231C167.018 77.2231 166.414 77.1 165.865 76.8537C165.317 76.6074 164.847 76.2772 164.455 75.8631C164.063 75.4489 163.755 74.9676 163.531 74.4191C163.319 73.8594 163.212 73.2717 163.212 72.6561ZM179.594 77.2231C179.18 77.2231 178.793 77.1559 178.435 77.0216C178.077 76.8761 177.764 76.6802 177.495 76.4339C177.237 76.1877 177.03 75.9022 176.874 75.5776C176.728 75.2418 176.655 74.878 176.655 74.4862C176.655 74.0833 176.745 73.7195 176.924 73.3948C177.103 73.059 177.355 72.7736 177.68 72.5385C178.015 72.3035 178.407 72.1188 178.855 71.9844C179.314 71.8501 179.812 71.783 180.349 71.783C180.775 71.783 181.206 71.8221 181.642 71.9005C182.079 71.9788 182.465 72.0852 182.801 72.2195V71.5143C182.801 70.7979 182.599 70.2382 182.196 69.8353C181.793 69.4211 181.222 69.214 180.484 69.214C179.599 69.214 178.67 69.5554 177.696 70.2382L177.209 69.2812C178.34 68.52 179.476 68.1394 180.618 68.1394C181.771 68.1394 182.666 68.4472 183.304 69.0629C183.954 69.6785 184.278 70.5461 184.278 71.6654V75.2418C184.278 75.5888 184.435 75.7679 184.748 75.7791V77.0552C184.592 77.0776 184.463 77.0944 184.362 77.1055C184.261 77.1167 184.155 77.1223 184.043 77.1223C183.752 77.1223 183.517 77.0384 183.338 76.8705C183.17 76.6914 183.069 76.4787 183.036 76.2324L183.002 75.6112C182.61 76.1373 182.112 76.5403 181.508 76.8201C180.915 77.0888 180.277 77.2231 179.594 77.2231ZM179.98 76.1149C180.506 76.1149 180.993 76.0198 181.441 75.8295C181.9 75.628 182.247 75.3649 182.482 75.0403C182.694 74.8276 182.801 74.6094 182.801 74.3855V73.0926C182.084 72.8128 181.34 72.6729 180.568 72.6729C179.829 72.6729 179.224 72.8296 178.754 73.143C178.295 73.4564 178.066 73.865 178.066 74.3687C178.066 74.615 178.111 74.8444 178.2 75.0571C178.301 75.2698 178.435 75.4545 178.603 75.6112C178.782 75.7679 178.989 75.891 179.224 75.9806C179.459 76.0701 179.711 76.1149 179.98 76.1149ZM191.359 77.2231C190.631 77.2231 189.988 77.044 189.428 76.6858C188.88 76.3276 188.443 75.8742 188.118 75.3258V80.6316H186.641V68.2905H187.951V69.936C188.298 69.3987 188.745 68.9678 189.294 68.6431C189.853 68.3073 190.469 68.1394 191.141 68.1394C191.745 68.1394 192.299 68.2626 192.803 68.5088C193.307 68.7551 193.743 69.0909 194.113 69.5162C194.482 69.9304 194.767 70.4117 194.969 70.9602C195.182 71.5087 195.288 72.0796 195.288 72.6729C195.288 73.2997 195.193 73.893 195.003 74.4526C194.812 75.0011 194.544 75.4825 194.197 75.8966C193.85 76.2996 193.435 76.6242 192.954 76.8705C192.473 77.1055 191.941 77.2231 191.359 77.2231ZM190.906 75.947C191.342 75.947 191.734 75.8575 192.081 75.6784C192.439 75.4881 192.741 75.2418 192.988 74.9396C193.245 74.6261 193.441 74.2735 193.575 73.8818C193.71 73.49 193.777 73.087 193.777 72.6729C193.777 72.2363 193.698 71.8221 193.542 71.4304C193.385 71.0274 193.172 70.6804 192.904 70.3893C192.635 70.0871 192.316 69.8521 191.947 69.6841C191.588 69.505 191.197 69.4155 190.771 69.4155C190.503 69.4155 190.223 69.4715 189.932 69.5834C189.652 69.6841 189.383 69.8241 189.126 70.0032C188.88 70.1711 188.661 70.3782 188.471 70.6244C188.292 70.8595 188.174 71.1113 188.118 71.38V73.8818C188.242 74.1728 188.398 74.4471 188.589 74.7045C188.779 74.9508 188.997 75.169 189.243 75.3593C189.49 75.5384 189.753 75.684 190.033 75.7959C190.312 75.8966 190.603 75.947 190.906 75.947ZM201.82 77.2231C201.093 77.2231 200.449 77.044 199.889 76.6858C199.341 76.3276 198.904 75.8742 198.58 75.3258V80.6316H197.102V68.2905H198.412V69.936C198.759 69.3987 199.207 68.9678 199.755 68.6431C200.315 68.3073 200.93 68.1394 201.602 68.1394C202.206 68.1394 202.761 68.2626 203.264 68.5088C203.768 68.7551 204.205 69.0909 204.574 69.5162C204.943 69.9304 205.229 70.4117 205.43 70.9602C205.643 71.5087 205.749 72.0796 205.749 72.6729C205.749 73.2997 205.654 73.893 205.464 74.4526C205.274 75.0011 205.005 75.4825 204.658 75.8966C204.311 76.2996 203.897 76.6242 203.415 76.8705C202.934 77.1055 202.402 77.2231 201.82 77.2231ZM201.367 75.947C201.803 75.947 202.195 75.8575 202.542 75.6784C202.9 75.4881 203.203 75.2418 203.449 74.9396C203.706 74.6261 203.902 74.2735 204.037 73.8818C204.171 73.49 204.238 73.087 204.238 72.6729C204.238 72.2363 204.16 71.8221 204.003 71.4304C203.846 71.0274 203.634 70.6804 203.365 70.3893C203.096 70.0871 202.777 69.8521 202.408 69.6841C202.05 69.505 201.658 69.4155 201.233 69.4155C200.964 69.4155 200.684 69.4715 200.393 69.5834C200.113 69.6841 199.845 69.8241 199.587 70.0032C199.341 70.1711 199.123 70.3782 198.932 70.6244C198.753 70.8595 198.636 71.1113 198.58 71.38V73.8818C198.703 74.1728 198.86 74.4471 199.05 74.7045C199.24 74.9508 199.458 75.169 199.705 75.3593C199.951 75.5384 200.214 75.684 200.494 75.7959C200.774 75.8966 201.065 75.947 201.367 75.947Z" fill="#817370"/>
</g>
<defs>
<clipPath id="clip0">
<rect width="223" height="86" fill="white"/>
</clipPath>
</defs>
</svg>
