<svg width="222" height="85" viewBox="0 0 222 85" fill="none" xmlns="http://www.w3.org/2000/svg">
<g clip-path="url(#clip0)">
<path d="M26.589 23.4763C29.0167 22.2047 31.6755 21.8579 34.3344 22.5515C36.9933 23.2451 39.1898 25.0948 40.4614 27.5224L59.0737 61.1632H64.1602L56.7616 47.7531C59.5361 43.129 61.0389 37.8112 61.0389 32.3778C61.1545 16.0777 47.8601 2.7832 31.5599 2.7832C15.2598 2.7832 1.96533 16.0777 1.96533 32.3778C1.96533 48.678 15.2598 61.9724 31.5599 61.9724C35.8373 61.9724 40.1146 61.1632 43.9296 59.3135L44.8544 61.1632H49.941L45.6636 53.3021L43.6984 54.3426C39.999 56.4234 35.7217 57.4639 31.4443 57.4639C17.5719 57.4639 6.24268 46.1347 6.24268 32.2622C6.24268 18.3897 17.5719 7.06055 31.4443 7.06055C45.3168 7.06055 56.646 18.3897 56.646 32.2622C56.646 36.0771 55.8368 39.6609 54.2183 43.0134L44.2764 25.0948C42.4267 21.6266 39.3054 19.199 35.4905 18.1585C31.6755 17.1181 27.745 17.5805 24.3925 19.4302C17.3407 23.3607 14.7974 32.2622 18.7279 39.314C20.5776 42.7822 23.6989 45.2098 27.5138 46.2503C31.3287 47.2907 35.2593 46.8283 38.6118 44.9786L38.9586 44.863L36.7621 40.9325L36.4153 41.1637C31.4443 43.9382 25.2017 42.0885 22.5428 37.2332C19.8839 32.3778 21.7336 26.1352 26.589 23.4763Z" fill="#EC7E21"/>
<path d="M83.6972 32.0312C75.6049 32.0312 68.8999 38.6207 68.8999 46.8286C68.8999 55.0364 75.4893 61.6259 83.6972 61.6259C88.0902 61.6259 92.0207 59.6606 94.6796 56.6549V61.3947H98.3789V46.8286C98.3789 38.6207 91.7895 32.0312 83.6972 32.0312ZM83.6972 57.8109C77.6858 57.8109 72.7148 52.84 72.7148 46.8286C72.7148 40.8171 77.6858 35.8462 83.6972 35.8462C89.7086 35.8462 94.6796 40.8171 94.6796 46.8286C94.6796 52.84 89.7086 57.8109 83.6972 57.8109Z" fill="#F17E21"/>
<path d="M118.494 32.0312C110.402 32.0312 103.697 38.6207 103.697 46.8286V81.741H107.512V56.6549C110.171 59.6606 114.101 61.6259 118.494 61.6259C126.586 61.6259 133.291 55.0364 133.291 46.8286C133.291 38.6207 126.586 32.0312 118.494 32.0312ZM118.494 57.8109C112.483 57.8109 107.512 52.84 107.512 46.8286C107.512 40.8171 112.483 35.8462 118.494 35.8462C124.505 35.8462 129.476 40.8171 129.476 46.8286C129.476 52.84 124.505 57.8109 118.494 57.8109Z" fill="#F17E21"/>
<path d="M201.613 61.3944H197.914V43.9382C197.914 37.6956 203.001 32.7246 209.128 32.7246C215.37 32.7246 220.341 37.8112 220.341 43.9382H216.642C216.642 39.7764 213.289 36.4239 209.128 36.4239C204.966 36.4239 201.613 39.7764 201.613 43.9382V61.3944Z" fill="#F17E21"/>
<path d="M156.181 50.2962C156.181 54.4579 152.828 57.8104 148.667 57.8104C144.505 57.8104 141.152 54.4579 141.152 50.2962V36.4237H157.799V32.7244H141.152V23.9385H137.453V50.4118C137.453 56.6544 142.54 61.6254 148.667 61.6254C154.909 61.6254 159.88 56.5388 159.88 50.4118H156.181V50.2962Z" fill="#F17E21"/>
<path d="M191.556 53.9954C188.897 58.6195 184.042 61.5096 178.608 61.5096C170.516 61.5096 163.811 54.9202 163.811 46.7123C163.811 38.5045 170.4 31.915 178.608 31.915C186.701 31.915 193.406 38.5045 193.406 46.7123V48.562H167.857C168.782 53.7642 173.291 57.6947 178.724 57.6947C181.961 57.6947 184.967 56.3075 187.047 53.8798L191.556 53.9954ZM167.857 44.9783H189.591C188.666 39.7761 184.157 35.8456 178.724 35.8456C173.175 35.8456 168.666 39.7761 167.857 44.9783Z" fill="#F17E21"/>
</g>
<defs>
<clipPath id="clip0">
<rect width="222" height="84.3967" fill="white" transform="translate(0 0.470703)"/>
</clipPath>
</defs>
</svg>
