<svg width="251" height="62" viewBox="0 0 251 62" fill="none" xmlns="http://www.w3.org/2000/svg">
<g clip-path="url(#clip0)">
<path d="M26.6991 21.8738C29.063 20.6199 31.7051 20.2019 34.3472 21.0378C36.9894 21.7345 39.0752 23.5457 40.3268 25.9142L58.6824 59.2131H63.6885L56.5966 45.9772C59.3777 41.3794 60.9074 36.085 60.9074 30.7907C60.9074 14.6289 47.8359 1.53223 31.7051 1.53223C15.5744 1.53223 2.50293 14.6289 2.50293 30.7907C2.50293 46.9525 15.5744 60.0491 31.7051 60.0491C35.8769 60.0491 40.1877 59.2131 43.9423 57.4019L44.9157 59.2131H49.9218L45.75 51.5502L43.8032 52.5255C40.1877 54.6154 36.0159 55.5907 31.7051 55.5907C18.0774 55.5907 6.95279 44.4446 6.95279 30.6513C6.95279 16.9974 18.0774 5.712 31.7051 5.712C45.3328 5.712 56.4575 16.8581 56.4575 30.512C56.4575 34.2738 55.6231 37.8963 54.0935 41.1008L44.3594 23.4064C42.5517 20.0626 39.3533 17.5547 35.7378 16.5794C31.9833 15.4648 28.0896 16.0221 24.7522 17.8334C17.7993 21.7345 15.2963 30.512 19.1899 37.4783C20.9977 40.8221 24.196 43.33 27.8115 44.3053C31.5661 45.4199 35.4597 44.8626 38.7971 43.0513L38.9362 43.1907L36.8503 39.2895L36.5722 39.4289C31.7051 42.076 25.5866 40.4041 22.9445 35.5277C20.0243 30.7907 21.832 24.6603 26.6991 21.8738Z" fill="#F07E25"/>
<path d="M68.4165 46.9527C68.4165 45.1415 68.6946 43.4696 69.3899 41.937C69.9461 40.4044 70.9195 39.0112 72.032 37.8966C73.1445 36.782 74.5351 35.8067 76.0647 35.11C77.5943 34.4134 79.4021 34.1348 81.2099 34.1348C83.7129 34.1348 85.7988 34.6921 87.6065 35.8067C89.4143 36.9213 90.8049 38.4539 91.6392 40.2651L87.4675 41.519C86.7722 40.4044 85.9378 39.4291 84.8254 38.7325C83.7129 38.0359 82.4614 37.7572 80.9317 37.7572C79.8193 37.7572 78.7068 38.0359 77.7334 38.4539C76.76 38.8718 75.7866 39.5685 75.0913 40.4044C74.396 41.2404 73.8398 42.2157 73.2835 43.3303C72.8664 44.4449 72.5882 45.6988 72.5882 47.0921C72.5882 48.346 72.8664 49.5999 73.2835 50.8539C73.7007 51.9685 74.396 52.9438 75.0913 53.919C75.7866 54.755 76.76 55.4516 77.7334 55.8696C78.7068 56.2876 79.8193 56.5662 80.9317 56.5662C81.627 56.5662 82.3223 56.4269 83.1567 56.2876C83.852 56.1483 84.5473 55.8696 85.1035 55.4516C85.6597 55.0336 86.2159 54.755 86.6331 54.1977C87.0503 53.7797 87.4675 53.2224 87.6065 52.6651L91.7783 53.919C91.3611 54.8943 90.8049 55.7303 90.1096 56.4269C89.4143 57.2629 88.5799 57.8202 87.7456 58.3775C86.7722 58.9348 85.7988 59.3527 84.6863 59.6314C83.5738 59.9101 82.3223 60.0494 81.0708 60.0494C79.124 60.0494 77.4553 59.6314 75.9256 58.9348C74.396 58.2381 73.0054 57.2629 71.893 56.1483C70.7805 55.0336 69.9461 53.6404 69.2509 51.9685C68.6946 50.4359 68.4165 48.764 68.4165 46.9527Z" fill="#414142"/>
<path d="M107.214 60.049C105.267 60.049 103.598 59.6311 102.069 58.9344C100.539 58.2378 99.1485 57.2625 98.036 56.1479C96.9236 55.0333 96.0892 53.6401 95.533 51.9682C94.9767 50.4356 94.5596 48.7637 94.5596 47.0917C94.5596 45.2805 94.8377 43.6086 95.533 42.076C96.0892 40.5434 97.0626 39.1502 98.1751 37.8962C99.2875 36.7816 100.539 35.8064 102.208 35.1097C103.737 34.4131 105.406 33.9951 107.353 33.9951C109.161 33.9951 110.968 34.4131 112.498 35.1097C114.028 35.8064 115.418 36.7816 116.531 37.8962C117.643 39.0108 118.478 40.4041 119.173 42.076C119.729 43.6086 120.146 45.2805 120.146 47.0917C120.146 48.7637 119.868 50.4356 119.173 51.9682C118.617 53.5007 117.643 54.894 116.531 56.1479C115.418 57.2625 114.028 58.2378 112.498 58.9344C110.829 59.6311 109.161 60.049 107.214 60.049ZM99.0094 47.0917C99.0094 48.3457 99.2875 49.5996 99.7047 50.7142C100.122 51.8288 100.678 52.8041 101.512 53.6401C102.208 54.476 103.181 55.1726 104.155 55.5906C105.128 56.0086 106.24 56.2873 107.353 56.2873C108.465 56.2873 109.578 56.0086 110.551 55.5906C111.525 55.1726 112.498 54.476 113.193 53.6401C114.028 52.8041 114.584 51.8288 115.001 50.7142C115.418 49.5996 115.696 48.3457 115.696 47.0917C115.696 45.8378 115.418 44.5839 115.001 43.4693C114.584 42.3547 114.028 41.3794 113.193 40.5434C112.359 39.7075 111.525 39.0108 110.551 38.5929C109.578 38.1749 108.465 37.8962 107.353 37.8962C106.24 37.8962 105.128 38.1749 104.155 38.5929C103.181 39.1502 102.208 39.7075 101.512 40.5434C100.817 41.3794 100.122 42.3547 99.7047 43.4693C99.1485 44.5839 99.0094 45.8378 99.0094 47.0917Z" fill="#414142"/>
<path d="M146.706 59.4914H142.535V45.5588C142.535 42.9116 142.117 40.9611 141.283 39.7071C140.449 38.4532 139.197 37.8959 137.528 37.8959C136.694 37.8959 135.86 38.0352 134.886 38.4532C134.052 38.7319 133.218 39.2892 132.383 39.8465C131.549 40.4038 130.993 41.1004 130.436 41.9364C129.88 42.7723 129.463 43.6083 129.185 44.5836V59.6307H125.013V34.5521H128.907V39.9858C129.88 38.1746 131.271 36.7813 133.218 35.806C135.025 34.6914 137.111 34.2734 139.336 34.2734C140.727 34.2734 141.978 34.5521 142.952 35.1094C143.925 35.6667 144.62 36.3633 145.316 37.3386C145.872 38.3139 146.289 39.4285 146.567 40.6824C146.845 41.9364 146.984 43.3296 146.984 44.8622V59.4914H146.706Z" fill="#414142"/>
<path d="M174.935 59.4914H170.764V45.5588C170.764 42.9116 170.346 40.9611 169.512 39.7071C168.678 38.4532 167.426 37.8959 165.757 37.8959C164.923 37.8959 164.089 38.0352 163.115 38.4532C162.281 38.7319 161.447 39.2892 160.612 39.8465C159.778 40.4038 159.222 41.1004 158.665 41.9364C158.109 42.7723 157.692 43.6083 157.414 44.5836V59.6307H153.242V34.5521H157.136V39.9858C158.109 38.1746 159.5 36.7813 161.447 35.806C163.254 34.6914 165.34 34.2734 167.565 34.2734C168.956 34.2734 170.207 34.5521 171.181 35.1094C172.154 35.6667 172.849 36.3633 173.545 37.3386C174.101 38.3139 174.518 39.4285 174.796 40.6824C175.074 41.9364 175.213 43.3296 175.213 44.8622V59.4914H174.935Z" fill="#414142"/>
<path d="M192.596 60.0494C190.649 60.0494 188.98 59.7707 187.45 59.0741C185.921 58.3775 184.53 57.4022 183.418 56.2876C182.305 55.173 181.471 53.7797 180.776 52.1078C180.219 50.5752 179.802 48.9033 179.802 47.0921C179.802 45.2808 180.08 43.6089 180.776 42.0763C181.332 40.5438 182.305 39.1505 183.418 37.8966C184.53 36.782 185.921 35.8067 187.45 35.11C188.98 34.4134 190.788 34.1348 192.596 34.1348C194.542 34.1348 196.211 34.5527 197.741 35.2494C199.27 35.946 200.661 36.9213 201.634 38.0359C202.747 39.1505 203.581 40.5438 204.137 42.0763C204.694 43.6089 204.972 45.2808 204.972 46.9527C204.972 47.3707 204.972 47.6494 204.972 47.928C204.972 48.2067 204.972 48.4853 204.833 48.6247H184.113C184.252 49.8786 184.53 50.9932 184.947 51.9685C185.365 52.9438 186.06 53.919 186.755 54.6157C187.589 55.3123 188.424 55.8696 189.397 56.2876C190.371 56.7056 191.344 56.8449 192.457 56.8449C193.291 56.8449 193.986 56.7056 194.681 56.5662C195.377 56.4269 196.072 56.1483 196.767 55.7303C197.463 55.3123 198.019 54.8943 198.436 54.4763C198.992 53.919 199.27 53.3617 199.548 52.8044L203.164 53.7797C202.747 54.755 202.191 55.591 201.495 56.2876C200.8 57.1235 199.966 57.6808 198.992 58.2381C198.019 58.7954 197.045 59.2134 195.794 59.4921C194.96 59.7707 193.847 60.0494 192.596 60.0494ZM201.078 45.2808C200.939 44.1662 200.661 43.0516 200.244 41.937C199.688 40.9617 199.131 40.1258 198.436 39.4291C197.741 38.7325 196.767 38.1752 195.794 37.7572C194.821 37.3393 193.708 37.1999 192.596 37.1999C191.483 37.1999 190.371 37.3393 189.397 37.7572C188.424 38.1752 187.589 38.7325 186.755 39.4291C186.06 40.1258 185.365 40.9617 184.947 41.937C184.53 42.9123 184.252 44.0269 184.113 45.1415H201.078V45.2808Z" fill="#414142"/>
<path d="M208.17 46.9527C208.17 45.1415 208.448 43.4696 209.143 41.937C209.7 40.4044 210.673 39.0112 211.785 37.8966C212.898 36.782 214.288 35.8067 215.818 35.11C217.348 34.4134 219.156 34.1348 220.963 34.1348C223.466 34.1348 225.552 34.6921 227.36 35.8067C229.168 36.9213 230.558 38.4539 231.393 40.2651L227.221 41.519C226.526 40.4044 225.691 39.4291 224.579 38.7325C223.466 38.0359 222.215 37.7572 220.685 37.7572C219.573 37.7572 218.46 38.0359 217.487 38.4539C216.513 38.8718 215.54 39.5685 214.845 40.4044C214.149 41.2404 213.593 42.2157 213.037 43.3303C212.62 44.4449 212.342 45.6988 212.342 47.0921C212.342 48.346 212.62 49.5999 213.037 50.8539C213.454 51.9685 214.149 52.9438 214.845 53.919C215.54 54.755 216.513 55.4516 217.487 55.8696C218.46 56.2876 219.573 56.5662 220.685 56.5662C221.38 56.5662 222.076 56.4269 222.91 56.2876C223.605 56.1483 224.301 55.8696 224.857 55.4516C225.413 55.0336 225.969 54.755 226.387 54.1977C226.804 53.7797 227.221 53.2224 227.36 52.6651L231.532 53.919C231.115 54.8943 230.558 55.7303 229.863 56.4269C229.168 57.2629 228.333 57.8202 227.499 58.3775C226.526 58.9348 225.552 59.3527 224.44 59.6314C223.327 59.9101 222.076 60.0494 220.824 60.0494C218.877 60.0494 217.209 59.6314 215.679 58.9348C214.149 58.2381 212.759 57.2629 211.646 56.1483C210.534 55.0336 209.7 53.6404 209.004 51.9685C208.309 50.2966 208.17 48.764 208.17 46.9527Z" fill="#414142"/>
<path d="M249.192 58.238C248.914 58.3773 248.636 58.5166 248.219 58.656C247.802 58.7953 247.384 59.0739 246.828 59.2133C246.272 59.3526 245.716 59.4919 245.159 59.6312C244.603 59.7706 243.908 59.7706 243.213 59.7706C241.683 59.7706 240.292 59.3526 239.18 58.5166C238.067 57.6807 237.511 56.2874 237.511 54.6155V37.7571H234.174V34.4133H237.511V26.0537H241.683V34.4133H247.245V37.7571H241.683V53.3616C241.683 54.3369 242.1 54.8942 242.656 55.3121C243.213 55.7301 243.769 55.8694 244.603 55.8694C245.438 55.8694 246.133 55.7301 246.828 55.4515C247.523 55.1728 247.941 55.0335 248.219 54.7548L249.192 58.238Z" fill="#414142"/>
</g>
<defs>
<clipPath id="clip0">
<rect width="251" height="62" fill="white"/>
</clipPath>
</defs>
</svg>
