<?xml version="1.0" encoding="utf-8"?>
<!-- Generator: Adobe Illustrator 23.0.1, SVG Export Plug-In . SVG Version: 6.00 Build 0)  -->
<svg version="1.1" id="Layer_1" xmlns="http://www.w3.org/2000/svg" xmlns:xlink="http://www.w3.org/1999/xlink" x="0px" y="0px"
	 width="120px" height="120px" viewBox="0 0 120 120" style="enable-background:new 0 0 120 120;" xml:space="preserve">
<g>
	<g>
		<path d="M114,12.6l-7-7C102.5,1,94.8,0.8,90,5L77.7,15.6c-0.2,0.1-0.3,0.3-0.4,0.5L65.4,36l-7.7,2.6c-0.6,0.2-1.1,0.8-1.3,1.4
			c-0.2,0.7,0,1.4,0.5,1.8l20.9,20.9c0.4,0.4,0.9,0.6,1.4,0.6c0.2,0,0.3,0,0.5-0.1c0.7-0.2,1.2-0.6,1.4-1.3l2.6-7.7L103.8,42
			c0.2-0.1,0.3-0.2,0.5-0.4l10.4-12C118.8,24.8,118.5,17.1,114,12.6z M111.7,27.1l-10.2,11.8L81,51.2c-0.4,0.2-0.7,0.6-0.8,1.1
			l-1.8,5.3l-4.7-4.7c0,0,0,0,0,0l-7-7c0,0,0,0,0,0L62,41.2l5.3-1.8c0.4-0.1,0.8-0.5,1.1-0.9l12.1-20.2L92.5,8
			c3.3-2.9,8.6-2.7,11.7,0.4l7,7C114.3,18.5,114.5,23.7,111.7,27.1z"/>
	</g>
</g>
<g>
	<g>
		<path d="M108.4,81.1c-5.8-5.8-14.3-7.8-22-5.3L44.6,34c2.5-7.7,0.5-16.2-5.3-22c-6.1-6.1-15.2-8-23.2-4.8
			c-0.6,0.2-1.1,0.8-1.2,1.4c-0.1,0.6,0.1,1.3,0.5,1.8L28,22.9l-8.3,8.3L7.1,18.7C6.6,18.2,6,18,5.3,18.2c-0.6,0.1-1.2,0.6-1.4,1.2
			c-3.1,8-1.2,17.1,4.8,23.2c5.8,5.8,14.3,7.8,22,5.3l15.6,15.6L26.9,83l-12.4,6.9c-0.3,0.2-0.6,0.5-0.8,0.8l-5.6,11.1
			c-0.4,0.8-0.2,1.7,0.4,2.3l7,7c0.4,0.4,0.9,0.6,1.4,0.6c0.3,0,0.6-0.1,0.9-0.2l11.1-5.6c0.4-0.2,0.6-0.5,0.8-0.8l6.9-12.4
			l19.5-19.5l16.4,16.4c-2.5,7.7-0.5,16.2,5.3,22c4.1,4.1,9.7,6.3,15.3,6.3c2.7,0,5.3-0.5,7.9-1.5c0.6-0.2,1.1-0.8,1.2-1.4
			c0.1-0.6-0.1-1.3-0.5-1.8l-12.5-12.5l8.3-8.3l12.5,12.5c0.5,0.5,1.1,0.7,1.8,0.5c0.6-0.1,1.2-0.6,1.4-1.2
			C116.4,96.2,114.5,87.1,108.4,81.1z M33.6,90.1c-0.1,0.1-0.2,0.3-0.3,0.4l-6.8,12.1l-9.3,4.7l-5-5l4.7-9.3L29,86.3
			c0.2-0.1,0.3-0.2,0.4-0.3l19.7-19.7l4.2,4.2L33.6,90.1z M110.5,99.8L98.9,88.2c-0.8-0.8-2-0.8-2.8,0L85,99.4
			c-0.4,0.4-0.6,0.9-0.6,1.4c0,0.5,0.2,1,0.6,1.4l11.6,11.6c-5.7,1.1-11.7-0.6-16-4.8c-5-5-6.5-12.4-4-19c0.3-0.7,0.1-1.6-0.4-2.1
			L32.6,44.2c-0.4-0.4-0.9-0.6-1.4-0.6c-0.2,0-0.5,0-0.7,0.1c-6.6,2.6-14,1-19-4c-4.2-4.2-6-10.2-4.8-16l11.6,11.6
			c0.8,0.8,2,0.8,2.8,0l11.1-11.1c0.8-0.8,0.8-2,0-2.8L20.6,9.9c5.7-1.1,11.7,0.6,16,4.8c5,5,6.5,12.4,4,19
			c-0.3,0.7-0.1,1.6,0.4,2.1l43.6,43.6c0.6,0.6,1.4,0.7,2.1,0.4c6.6-2.6,14-1,19,4C109.9,88.1,111.6,94.1,110.5,99.8z"/>
	</g>
</g>
</svg>
