<?xml version="1.0" encoding="utf-8"?>
<!-- Generator: Adobe Illustrator 23.0.1, SVG Export Plug-In . SVG Version: 6.00 Build 0)  -->
<svg version="1.1" id="Capa_1" xmlns="http://www.w3.org/2000/svg" xmlns:xlink="http://www.w3.org/1999/xlink" x="0px" y="0px"
	 width="120px" height="120px" viewBox="0 0 120 120" style="enable-background:new 0 0 120 120;" xml:space="preserve">
<path d="M116.7,104.8L99.5,72.6l-6.3,3.4l14.4,26.9H74.3v-7.1L60,106.4l14.3,10.7V110h39.3c1.3,0,2.4-0.7,3.1-1.7
	C117.3,107.2,117.3,105.9,116.7,104.8L116.7,104.8z"/>
<path d="M31.5,67.1l6.2,3.3L35,52.8l-16.2,7.5l6.4,3.5l-22,41c-0.6,1.1-0.6,2.4,0.1,3.5c0.6,1.1,1.8,1.7,3.1,1.7h46.4v-7.1H12.4
	L31.5,67.1L31.5,67.1z"/>
<path d="M76.3,58.7L92,67.1l3.7-17.5l-6.8,3.2L63.1,4.7c-0.6-1.2-1.9-1.9-3.1-1.9c-1.3,0-2.5,0.7-3.2,1.9L35.8,44l6.3,3.4L60,14
	l22.4,41.9L76.3,58.7z"/>
</svg>
