<?xml version="1.0" encoding="utf-8"?>
<!-- Generator: Adobe Illustrator 23.0.1, SVG Export Plug-In . SVG Version: 6.00 Build 0)  -->
<svg version="1.1" id="Capa_1" xmlns="http://www.w3.org/2000/svg" xmlns:xlink="http://www.w3.org/1999/xlink" x="0px" y="0px"
	 width="120px" height="120px" viewBox="0 0 120 120" style="enable-background:new 0 0 120 120;" xml:space="preserve">
<g>
	<g>
		<path d="M69.7,7.6H50.3c-1.1,0-1.9,0.9-1.9,1.9s0.9,1.9,1.9,1.9h19.4c1.1,0,1.9-0.9,1.9-1.9C71.6,8.5,70.8,7.6,69.7,7.6z"/>
	</g>
</g>
<g>
	<g>
		<path d="M83.3,7.6h-1.9c-1.1,0-1.9,0.9-1.9,1.9s0.9,1.9,1.9,1.9h1.9c1.1,0,1.9-0.9,1.9-1.9C85.2,8.5,84.4,7.6,83.3,7.6z"/>
	</g>
</g>
<g>
	<g>
		<path d="M62.4,100.8h-4.8c-3,0-5.4,2.4-5.4,5.4v0.9c0,3,2.4,5.4,5.4,5.4h4.8c3,0,5.4-2.4,5.4-5.4v-0.9
			C67.8,103.2,65.4,100.8,62.4,100.8z M63.9,107.1c0,0.8-0.7,1.5-1.5,1.5h-4.8c-0.8,0-1.5-0.7-1.5-1.5v-0.9c0-0.8,0.7-1.5,1.5-1.5
			h4.8c0.8,0,1.5,0.7,1.5,1.5V107.1z"/>
	</g>
</g>
<g>
	<g>
		<path d="M86,1.8H34c-3.9,0-7,3.1-7,7v102.4c0,3.9,3.1,7,7,7h52c3.9,0,7-3.1,7-7V8.8C93,4.9,89.9,1.8,86,1.8z M89.1,111.2
			c0,1.7-1.4,3.1-3.1,3.1H34c-1.7,0-3.1-1.4-3.1-3.1V8.8c0-1.7,1.4-3.1,3.1-3.1h52c1.7,0,3.1,1.4,3.1,3.1L89.1,111.2L89.1,111.2z"/>
	</g>
</g>
<g>
	<g>
		<path d="M91.1,13.4H28.9c-1.1,0-1.9,0.9-1.9,1.9v81.5c0,1.1,0.9,1.9,1.9,1.9h62.1c1.1,0,1.9-0.9,1.9-1.9V15.4
			C93,14.3,92.1,13.4,91.1,13.4z M89.1,94.9H30.9V17.3h58.2V94.9z"/>
	</g>
</g>
</svg>
