<svg width="24" height="24" viewBox="0 0 24 24" fill="none" xmlns="http://www.w3.org/2000/svg">
<g clip-path="url(#clip0)">
<path d="M12 2.99988C6.63639 2.99988 1.83017 6.51922 0.0401073 11.7576C-0.0133691 11.9151 -0.0133691 12.085 0.0401073 12.2425C1.83017 17.4808 6.63639 21.0002 12 21.0002C17.3636 21.0002 22.1699 17.4808 23.9599 12.2425C24.0134 12.085 24.0134 11.9151 23.9599 11.7576C22.1698 6.51922 17.3636 2.99988 12 2.99988ZM12 19.5002C7.36081 19.5002 3.19104 16.4965 1.54524 12C3.19104 7.50361 7.36076 4.49992 12 4.49992C16.6392 4.49992 20.809 7.50361 22.4548 12C20.809 16.4965 16.6392 19.5002 12 19.5002Z" fill="#808080"/>
<path d="M12.0001 7.49994C9.51861 7.49994 7.5 9.51855 7.5 12C7.5 14.4815 9.51861 16.5001 12.0001 16.5001C14.4816 16.5001 16.5002 14.4815 16.5002 12C16.5002 9.5185 14.4816 7.49994 12.0001 7.49994ZM12.0001 15.0001C10.3455 15.0001 9.00004 13.6546 9.00004 12C9.00004 10.3454 10.3455 8.99998 12.0001 8.99998C13.6547 8.99998 15.0001 10.3455 15.0001 12C15.0001 13.6546 13.6546 15.0001 12.0001 15.0001Z" fill="#808080"/>
</g>
<defs>
<clipPath id="clip0">
<rect width="24" height="24" fill="white"/>
</clipPath>
</defs>
</svg>
